<svg width="16" height="16" viewBox="0 0 16 16" fill="none" xmlns="http://www.w3.org/2000/svg">
<path fill-rule="evenodd" clip-rule="evenodd" d="M8 15C11.866 15 15 11.866 15 8C15 4.13401 11.866 1 8 1C4.13401 1 1 4.13401 1 8C1 11.866 4.13401 15 8 15ZM10.4749 5.52518C10.6702 5.72045 10.6702 6.03703 10.4749 6.23229L8.70711 8.00008L10.4749 9.76783C10.6701 9.96309 10.6701 10.2797 10.4749 10.4749C10.2796 10.6702 9.96301 10.6702 9.76775 10.4749L8 8.70718L6.23225 10.4749C6.03699 10.6702 5.72041 10.6702 5.52514 10.4749C5.32988 10.2797 5.32988 9.96309 5.52514 9.76783L7.29289 8.00008L5.52511 6.23229C5.32985 6.03703 5.32985 5.72045 5.52511 5.52518C5.72037 5.32992 6.03695 5.32992 6.23222 5.52518L8 7.29297L9.76778 5.52518C9.96305 5.32992 10.2796 5.32992 10.4749 5.52518Z" fill="#666666"/>
</svg>
