<svg width="95" height="50" viewBox="0 0 95 50" fill="none" xmlns="http://www.w3.org/2000/svg">
<path fill-rule="evenodd" clip-rule="evenodd" d="M47.5001 0C73.0465 0 93.4428 22.2031 94.2907 23.1472C95.2364 24.2024 95.2364 25.7976 94.2907 26.8528C93.4426 27.7969 73.0462 50 47.5001 50C21.954 50 1.55757 27.7969 0.709438 26.8528C-0.236479 25.7976 -0.236479 24.2024 0.709438 23.1472C1.55757 22.2031 21.9536 0 47.5001 0ZM28.0177 25C28.0177 35.7206 36.7586 44.4444 47.5001 44.4444C58.2416 44.4444 66.9825 35.7206 66.9825 25C66.9825 14.2794 58.2416 5.55556 47.5001 5.55556C36.7586 5.55556 28.0177 14.2794 28.0177 25Z" fill="#49A7A8"/>
<path d="M49.9444 19.4C49.9444 16.5832 51.3547 14.1052 53.5002 12.5811C51.575 11.6039 49.4276 11 47.1203 11C39.3347 11 33 17.2808 33 25C33 32.7192 39.3347 39 47.1203 39C54.0908 39 59.8602 33.9537 61 27.3598C55.3131 29.1752 49.9444 24.9108 49.9444 19.4Z" fill="#FA9400"/>
<path d="M36.6484 24.9988C36.6484 24.9988 39.225 34.8866 47.3441 35.4118" stroke="black" stroke-width="1.5" stroke-linecap="round"/>
<path fill-rule="evenodd" clip-rule="evenodd" d="M47.5 44C58.2696 44 67 35.2696 67 24.5C67 13.7304 58.2696 5 47.5 5C36.7304 5 28 13.7304 28 24.5C28 35.2696 36.7304 44 47.5 44Z" stroke="black"/>
</svg>
