<svg width="68" height="75" viewBox="0 0 68 75" fill="none" xmlns="http://www.w3.org/2000/svg">
<path d="M66.9846 40.68C66.4399 40.0485 65.6486 39.6511 64.8099 39.6511L59.192 39.7255L57.2275 39.7489L63.6998 70.8604L67.6548 42.9801C67.7714 42.1585 67.5314 41.3108 66.9846 40.68Z" fill="#388586"/>
<rect x="12.7998" width="44.4" height="54.4" rx="1.2" fill="#FA9400"/>
<path d="M38 8.3999H51" stroke="black" stroke-width="1.6"/>
<path d="M38 17.3999H51" stroke="black" stroke-width="1.6"/>
<path d="M20 25.3999H51" stroke="black" stroke-width="1.6"/>
<mask id="mask0" mask-type="alpha" maskUnits="userSpaceOnUse" x="20" y="7" width="13" height="13">
<rect x="20" y="7.19995" width="13" height="12" rx="1" fill="white"/>
</mask>
<g mask="url(#mask0)">
<rect x="20" y="7.19995" width="13" height="12" rx="1" fill="white" stroke="black" stroke-width="3.2"/>
</g>
<path fill-rule="evenodd" clip-rule="evenodd" d="M57.4193 39.7487C57.1989 38.2744 55.9322 37.2131 54.445 37.2131H51.4436H30.3488L29.4732 36.177L25.9712 32.0337C25.0461 30.9441 23.6842 30.2568 22.251 30.2568H17.6948H6.59395C5.47838 30.2568 4.41912 30.7802 3.69706 31.6337C2.9773 32.4922 2.67026 33.6637 2.85837 34.7641L3.27358 37.2131H3.00113C2.12343 37.2131 1.2932 37.5678 0.72696 38.2333C0.152077 38.8991 -0.098857 39.7662 0.0354487 40.6332L6.4045 70.8794C6.69847 72.7775 8.33281 74.1738 10.2523 74.1738H60.7147C61.5901 74.1738 62.4201 73.789 62.9868 73.1297C63.5574 72.4661 63.8124 71.6057 63.6848 70.7413L63.6714 70.6748L57.4193 39.7487Z" fill="#49A7A8"/>
<path d="M63.1318 68.854C63.1318 68.854 58.7399 47.5328 58.0323 43.9812C57.3247 40.4295 57.5524 37.2081 50.9998 37.2413C44.4471 37.2744 30.5094 37.2413 30.5094 37.2413C30.5094 37.2413 27.0252 32.9297 25.3748 31.4764C23.7245 30.023 21.7269 30.2077 19.0452 30.2568C16.3635 30.306 13.543 30.2568 13.543 30.2568" stroke="black" stroke-width="1.6" stroke-linecap="round" stroke-linejoin="round"/>
</svg>
