<svg width="64" height="43" viewBox="0 0 64 43" fill="none" xmlns="http://www.w3.org/2000/svg">
<path d="M1 0V42H63.5" stroke="#4DA1A1" stroke-width="1.8"/>
<path d="M7 3.5L17.3814 16L24.4407 7.5L36 22" stroke="#4DA1A1" stroke-width="2"/>
<circle cx="49" cy="20" r="13" stroke="#F69234" stroke-width="2"/>
<path d="M49.4628 27.989V26.187C51.5538 25.898 52.6758 24.436 52.6758 22.906C52.6758 21.393 51.6388 20.118 49.6158 19.676L49.4628 19.642V16.599C50.3128 16.922 50.6358 17.704 50.7208 18.214L52.5568 17.636C52.3188 16.514 51.4688 15.12 49.4628 14.797V12.978H47.8988V14.78C46.0288 15.035 44.6688 16.429 44.6688 18.112C44.6688 19.778 45.7908 20.832 47.5928 21.24L47.8988 21.308V24.436C46.7598 24.164 46.2328 23.212 46.1478 22.243L44.2438 22.77C44.3968 24.232 45.5358 25.915 47.8988 26.204V27.989H49.4628ZM46.6578 17.993C46.6578 17.347 47.0828 16.735 47.8988 16.531V19.319C47.0488 19.149 46.6578 18.605 46.6578 17.993ZM50.7038 23.008C50.7038 23.654 50.3128 24.266 49.4628 24.436V21.648C50.3128 21.886 50.7038 22.396 50.7038 23.008Z" fill="#F69234"/>
</svg>
