<svg width="66" height="48" viewBox="0 0 66 48" fill="none" xmlns="http://www.w3.org/2000/svg">
<g clip-path="url(#clip0)">
<path d="M43.0378 12.2124V12.3712L43.1925 12.4072C45.8309 13.0204 47.8 15.3728 47.8 18.1717C47.8 20.971 45.8309 23.3234 43.1925 23.9363L43.0378 23.9722V24.1311V34.9372C43.0378 35.3275 42.8493 35.6934 42.5318 35.9195L42.5317 35.9195C42.3248 36.0671 42.0795 36.1435 41.8315 36.1435C41.6992 36.1435 41.5663 36.1218 41.438 36.0778L21.6464 29.2499L21.3812 29.1584V29.4389V41.395C21.3812 44.9251 18.4861 47.8 14.9249 47.8C11.3634 47.8 8.46831 44.925 8.46831 41.395V28.7505V28.5747L8.294 28.5521C5.83429 28.2336 1.72403 27.3883 1.16152 27.2718C0.601373 27.1555 0.2 26.6623 0.2 26.0907V10.2532C0.2 9.68142 0.60148 9.18795 1.1615 9.07205L1.16153 9.07205C1.50759 9.00038 3.21217 8.64957 5.04553 8.31676C6.88825 7.98225 8.83283 7.67142 9.67456 7.67142H19.9395H19.973L20.0047 7.66048L41.4383 0.26595L41.4383 0.265934C41.8067 0.138758 42.2141 0.197751 42.5318 0.423999C42.8494 0.650516 43.0378 1.01646 43.0378 1.40623V12.2124ZM11.0365 26.0599V26.2599H11.2365H13.5414H13.7414V26.0599V10.2839V10.0839H13.5414H11.2365H11.0365V10.2839V26.0599ZM16.3539 10.0839H16.1539V10.2839V26.0599V26.2599H16.3539H18.6584H18.8584V26.0599V10.2839V10.0839H18.6584H16.3539ZM2.77343 11.2065L2.6125 11.2386V11.4027V24.9411V25.1052L2.77337 25.1373C4.6098 25.5036 6.91155 25.9298 8.39652 26.1353L8.62395 26.1668V25.9372V10.407V10.1773L8.3965 10.2089C6.91265 10.4144 4.61091 10.8406 2.77343 11.2065ZM11.0808 28.6724H10.8808V28.8724V41.395C10.8808 43.5991 12.6974 45.3875 14.9249 45.3875C17.1525 45.3875 18.9687 43.599 18.9687 41.395V28.8724V28.6724H18.7687H11.0808ZM40.3601 33.1539L40.6253 33.2454V32.9648V3.37901V3.09844L40.3601 3.18994L21.4057 9.72901L21.2709 9.7755V9.91807V26.4258V26.5683L21.4057 26.6148L40.3601 33.1539ZM43.0378 21.1765V21.4877L43.3209 21.3584C44.5384 20.8022 45.3875 19.5843 45.3875 18.1717C45.3875 16.7595 44.5384 15.5417 43.3209 14.9854L43.0378 14.8561V15.1673V21.1765Z" fill="#4DA1A1" stroke="white" stroke-width="0.4"/>
</g>
<path d="M55 11L63.5 2.5" stroke="#F69234" stroke-width="2.2"/>
<path d="M55 25L62.5 32.5" stroke="#F69234" stroke-width="2.2"/>
<path d="M55 17H65.5" stroke="#F69234" stroke-width="2.2"/>
<defs>
<clipPath id="clip0">
<rect width="48" height="48" fill="white"/>
</clipPath>
</defs>
</svg>
