<svg width="16" height="16" viewBox="0 0 16 16" fill="none" xmlns="http://www.w3.org/2000/svg">
<circle opacity="0.1" cx="8" cy="8" r="7" fill="#1A1A1A"/>
<path d="M7.19512 12V6.71739H8.81707V12H7.19512ZM7 4.90217C7 4.64855 7.09756 4.43478 7.29268 4.26087C7.4878 4.08696 7.72358 4 8 4C8.28455 4 8.52033 4.08696 8.70732 4.26087C8.90244 4.43478 9 4.64855 9 4.90217C9 5.1413 8.90244 5.34783 8.70732 5.52174C8.52033 5.69565 8.28455 5.78261 8 5.78261C7.72358 5.78261 7.4878 5.69565 7.29268 5.52174C7.09756 5.34783 7 5.1413 7 4.90217Z" fill="#1A1A1A"/>
</svg>
