<svg width="16" height="16" viewBox="0 0 16 16" fill="none" xmlns="http://www.w3.org/2000/svg">
<path d="M2.55212 13.457C2.69299 13.1734 2.65335 12.8334 2.45102 12.5899C0.0930275 9.75136 0.275135 5.53993 2.90538 2.90989C4.26776 1.54762 6.07047 0.8 7.99598 0.8C9.92149 0.8 11.7242 1.54762 13.0866 2.90989C14.4496 4.27278 15.2 6.07557 15.2 8C15.2 9.9253 14.4523 11.7278 13.09 13.0901C11.7018 14.4782 9.85708 15.2 7.9926 15.2C6.83248 15.2 5.66422 14.92 4.5965 14.3451C4.32686 14.1999 3.998 14.2214 3.74955 14.4004C2.84982 15.0488 1.98253 15.1831 1.40264 15.1831C1.26678 15.1831 1.14723 15.1754 1.04773 15.1651C1.81265 14.7331 2.28405 13.9966 2.55212 13.457Z" stroke="#0D5CAB" stroke-width="1.6" stroke-linejoin="round"/>
</svg>
