<svg width="62" height="62" viewBox="0 0 62 62" fill="none" xmlns="http://www.w3.org/2000/svg">
<path d="M9.82812 49.5117C10.4969 49.5117 11.0391 48.9696 11.0391 48.3008C11.0391 47.632 10.4969 47.0898 9.82812 47.0898C9.15934 47.0898 8.61719 47.632 8.61719 48.3008C8.61719 48.9696 9.15934 49.5117 9.82812 49.5117Z" fill="#4DA1A1"/>
<path d="M55.8464 11.2542H48.7215C47.1131 11.2542 45.6362 11.8275 44.484 12.7802V12.4652V9.13968C44.484 4.38421 40.6154 0.515625 35.86 0.515625H27.7812C27.1124 0.515625 26.5703 1.05788 26.5703 1.72656V5.05216C26.5703 9.80752 30.4389 13.6761 35.1942 13.6761H42.0621V17.9137V21.1808V25.9515C41.7426 25.931 41.4214 25.9198 41.0985 25.9198C37.9161 25.9198 34.8735 26.9009 32.3002 28.7569C31.7578 29.148 31.6352 29.9048 32.0264 30.4473C32.4177 30.9897 33.1745 31.1126 33.7169 30.7211C35.8752 29.1646 38.4278 28.3418 41.0985 28.3418C41.7441 28.3418 42.3822 28.3929 43.0091 28.4889C43.0611 28.5004 43.1143 28.5086 43.1685 28.5134C46.9368 29.1399 50.2691 31.4535 52.1578 34.8624C52.3789 35.2614 52.7921 35.4867 53.2181 35.4867C53.4165 35.4867 53.6179 35.4377 53.8038 35.3347C54.3888 35.0105 54.6002 34.2735 54.2761 33.6885C52.1807 29.9065 48.5933 27.2569 44.4838 26.3073V22.3917H50.3979C54.0699 22.3917 57.0574 19.4043 57.0574 15.7323V12.4652C57.0574 11.7965 56.5152 11.2542 55.8464 11.2542ZM42.0621 11.2542H35.1942C31.7744 11.2542 28.9922 8.47197 28.9922 5.05216V2.9375H35.86C39.2798 2.9375 42.0621 5.71975 42.0621 9.13968V11.2542ZM54.6355 15.7324C54.6355 18.0689 52.7346 19.9699 50.3979 19.9699H44.484V17.9138C44.484 15.5773 46.3849 13.6762 48.7215 13.6762H54.6355V15.7324Z" fill="#F69234"/>
<path d="M61.5958 39.8169C60.5389 37.4233 57.7316 36.3362 55.3379 37.3925C55.3318 37.3952 55.3259 37.398 55.3199 37.4006L47.408 41.0493C46.8005 41.3294 46.5354 42.0488 46.8153 42.6561C47.0954 43.2635 47.8148 43.5286 48.4221 43.2487L56.3243 39.6045C57.4945 39.0933 58.8638 39.6259 59.3801 40.7953C59.8976 41.9673 59.365 43.3417 58.1931 43.8593L42.0021 51.0081C39.4366 52.1409 36.5245 52.0751 34.0127 50.827L28.0859 47.8826C24.9278 46.3136 21.2662 46.2308 18.0407 47.655L17.9242 47.7066L13.4947 37.6744L19.6443 34.9593C22.5738 33.6657 25.8429 33.5615 28.8489 34.6653L40.7673 39.0422C41.8546 39.4415 42.4342 40.6579 42.0592 41.7538C41.6772 42.8708 40.4567 43.4714 39.3386 43.0935L30.1222 39.9762C29.4886 39.7618 28.8014 40.1018 28.5871 40.7353C28.3727 41.3689 28.7127 42.0561 29.3462 42.2704L38.5627 45.3877C39.0452 45.551 39.5367 45.6285 40.0205 45.6285C41.9214 45.6285 43.7029 44.4318 44.3508 42.538C45.1485 40.2065 43.9155 37.6184 41.6024 36.7689L29.6841 32.392C26.0859 31.0707 22.1731 31.1956 18.6665 32.7436L12.4773 35.4763C12.1291 34.9413 11.6265 34.5276 11.0197 34.2923C10.2556 33.9963 9.42182 34.0156 8.67528 34.3452L0.724867 37.8287C0.28457 38.0217 0 38.4571 0 38.9379V60.272C0 60.6925 0.218211 61.0829 0.576406 61.3034C0.770398 61.4227 0.990305 61.4829 1.21094 61.4829C1.39766 61.4829 1.58475 61.4398 1.75683 61.3529L17.1914 53.5557C17.9254 53.2219 18.4891 52.625 18.7808 51.8719C19.0238 51.2447 19.0543 50.5705 18.8744 49.9344L19.0187 49.8707C21.5845 48.7379 24.4964 48.804 27.0083 50.0519L32.9351 52.9963C36.0931 54.5653 39.7545 54.6483 42.9803 53.2238L59.1714 46.0751C61.565 45.018 62.6526 42.2106 61.5958 39.8169ZM16.5225 50.9969C16.4602 51.1578 16.3389 51.2849 16.181 51.3545C16.1618 51.363 16.1429 51.3721 16.1241 51.3815L2.42187 58.3035V53.0027L6.00359 51.2438C6.60397 50.949 6.8516 50.2234 6.55674 49.623C6.26188 49.0226 5.53604 48.775 4.93602 49.0698L2.42187 50.3044V39.7293L9.64972 36.5621C9.80762 36.4924 9.98321 36.4883 10.144 36.5506C10.305 36.6129 10.432 36.7343 10.5017 36.892L16.1977 49.7924C16.1982 49.7936 16.1987 49.7947 16.1992 49.7958L16.5113 50.5025C16.5809 50.6604 16.5849 50.836 16.5225 50.9969Z" fill="#4DA1A1"/>
</svg>
