<svg width="269" height="321" viewBox="0 0 269 321" fill="none" xmlns="http://www.w3.org/2000/svg">
<path d="M77.4228 210.18C77.4228 210.18 76.8624 210.193 75.9185 210.295" stroke="#231F20" stroke-linecap="round"/>
<path d="M73.0388 210.744C66.5086 212.07 54.9853 216.488 54.9853 231.162V275.641" stroke="#231F20" stroke-linecap="round" stroke-dasharray="3.86 3.86"/>
<path d="M54.9853 277.099V278.608" stroke="#231F20" stroke-linecap="round"/>
<path d="M78.7006 214.837C78.2642 214.791 77.7552 214.779 77.1902 214.806" stroke="#231F20" stroke-linecap="round"/>
<path d="M74.1014 215.271C67.9449 216.76 59.4642 222.011 59.4642 235.001V275.586" stroke="#231F20" stroke-linecap="round" stroke-dasharray="4.14 4.14"/>
<path d="M59.4676 277.154V278.664" stroke="#231F20" stroke-linecap="round"/>
<path d="M80.2732 219.093C80.2732 219.093 79.6976 219.071 78.7643 219.145" stroke="#231F20" stroke-linecap="round"/>
<path d="M75.6722 219.631C70.9013 220.761 64.1337 224.228 64.1337 234.801V262.597" stroke="#231F20" stroke-linecap="round" stroke-dasharray="4.15 4.15"/>
<path d="M64.1317 264.168V265.677" stroke="#231F20" stroke-linecap="round"/>
<path d="M81.2728 223.336C81.2728 223.336 80.6919 223.377 79.7753 223.536" stroke="#231F20" stroke-linecap="round"/>
<path d="M76.7218 224.289C72.9258 225.519 68.133 228.289 68.133 234.429V262.596" stroke="#231F20" stroke-linecap="round" stroke-dasharray="4.16 4.16"/>
<path d="M68.1356 264.168V265.677" stroke="#231F20" stroke-linecap="round"/>
<path d="M82.7898 226.958C82.7898 226.958 82.2021 227.003 81.3028 227.214" stroke="#231F20" stroke-linecap="round"/>
<path d="M78.3371 228.26C75.4419 229.67 72.2018 232.575 72.2018 238.515V262.089" stroke="#231F20" stroke-linecap="round" stroke-dasharray="4.16 4.16"/>
<path d="M72.2025 263.668V265.178" stroke="#231F20" stroke-linecap="round"/>
<path d="M84.3958 231.987C84.3958 231.987 83.8005 232.107 82.9466 232.413" stroke="#231F20" stroke-linecap="round"/>
<path d="M80.1768 233.794C78.4841 234.937 76.9268 236.728 76.9268 239.443V262.117" stroke="#231F20" stroke-linecap="round" stroke-dasharray="4.1 4.1"/>
<path d="M76.9241 263.668V265.178" stroke="#231F20" stroke-linecap="round"/>
<path fill-rule="evenodd" clip-rule="evenodd" d="M189.89 291.627V319.633H204.551V308.005L225.026 319.633L268.504 300.675C268.504 300.675 266.482 291.828 254.601 291.575C242.721 291.322 232.104 296.63 229.197 290.311C226.29 283.991 225.784 280.252 225.784 280.252L189.89 291.627Z" fill="#1C1C1C"/>
<path fill-rule="evenodd" clip-rule="evenodd" d="M182.345 319.633H166.941V307.602L159.587 319.633H113.79C113.79 319.633 112.242 311.988 118.693 307.602C125.143 303.216 132.625 304.635 137.398 298.83C142.172 293.024 142.688 291.445 142.688 291.445L182.345 292.121V319.633Z" fill="#1C1C1C"/>
<path fill-rule="evenodd" clip-rule="evenodd" d="M123.114 125.312C123.114 125.312 118.909 127.069 118.668 138.908C118.427 150.747 117.46 180.466 117.46 180.466L101.755 206.318L117.701 216.466L119.771 187.706L172.307 160.895C172.307 160.895 166.991 155.579 162.4 151.714L157.809 147.848L175.206 147.365L167.716 152.921L187.528 172.734C187.528 172.734 211.206 149.298 217.247 141.807C223.287 134.317 222.079 121.512 205.649 120.062L135.347 120.194L123.114 125.312Z" fill="#49A7A8"/>
<path fill-rule="evenodd" clip-rule="evenodd" d="M119.77 187.707C119.77 187.707 116.478 240.588 115.893 249.648C115.309 258.708 137.812 294.947 137.812 294.947H184.281L161.168 247.017L163.531 211.654L187.203 229.19V294.947L231.627 285.115V218.376C231.627 209.316 231.334 203.763 213.799 192.073C196.263 180.383 172.306 160.895 172.306 160.895L119.77 187.707Z" fill="#E1DCD6"/>
<path fill-rule="evenodd" clip-rule="evenodd" d="M170.13 155.338C170.13 155.338 159.809 155.875 153.061 159.586C146.313 163.297 148.984 168.633 152.457 171.026C152.457 171.026 152.386 174.431 155.254 175.612C155.254 175.612 154.431 182.359 161.168 182.697C167.906 183.034 175.835 175.274 175.835 175.274C175.835 175.274 178.682 176.866 182.076 174.093C185.469 171.32 185.001 170.209 185.001 170.209L170.13 155.338Z" fill="#FA9400"/>
<path fill-rule="evenodd" clip-rule="evenodd" d="M103.172 207.221C103.172 207.221 90.236 211.949 88.5131 213.002C86.791 214.054 86.6949 217.787 89.8533 220.85C93.0117 223.912 93.4542 224.468 93.4542 224.468C93.4542 224.468 92.3416 226.592 94.2559 228.793C96.1702 230.995 98.8498 231.186 99.8066 230.899C99.8066 230.899 101.338 232.909 105.262 232.718C105.262 232.718 106.406 235.102 109.329 235.483C112.251 235.865 115.939 233.525 117.05 231.296C118.16 229.066 119.749 223.7 119.939 221.745C120.13 219.789 118.937 218.325 118.414 218.074C117.893 217.822 117.701 216.467 117.701 216.467L103.172 207.221Z" fill="#FA9400"/>
<path fill-rule="evenodd" clip-rule="evenodd" d="M139.258 238.515C139.258 238.515 117.176 204.217 113.263 197.537C109.349 190.857 107.63 180.202 117.699 172.997C127.766 165.792 138.978 169.893 143.451 176.742C147.923 183.59 169.894 219.089 169.894 219.089L139.258 238.515Z" fill="#1C1C1C"/>
<path fill-rule="evenodd" clip-rule="evenodd" d="M139.258 238.514L97.4253 216.466L86.4828 238.514L75.7565 204.973L131.121 225.528L139.258 238.514Z" fill="#1C1C1C"/>
<path fill-rule="evenodd" clip-rule="evenodd" d="M108.037 101.358C108.037 101.358 103.426 105.484 99.7643 100.211C96.1021 94.9379 97.6723 87.4397 105.868 86.9163C114.064 86.3929 116.864 89.7064 116.864 89.7064C116.864 89.7064 133.77 88.9765 133.77 102.894C133.77 116.812 108.037 101.358 108.037 101.358Z" fill="#1C1C1C"/>
<path fill-rule="evenodd" clip-rule="evenodd" d="M108.035 101.358C108.035 101.358 107.564 104.419 108.859 107.597C108.859 107.597 106.74 112.777 109.448 117.839C112.155 122.901 117.1 125.02 122.28 124.079L125.222 128.434L133.581 131.259L135.347 120.193L132.874 114.896L132.639 111.6C132.639 111.6 135.935 110.304 135.347 106.42C134.758 102.535 131.462 102.417 129.696 102.535C127.93 102.653 126.282 105.125 126.282 105.125C126.282 105.125 123.81 106.42 119.454 103.594C115.098 100.769 114.039 98.8853 108.035 101.358Z" fill="#FA9400"/>
<path fill-rule="evenodd" clip-rule="evenodd" d="M98.9298 223.765C98.9298 223.765 101.839 216.804 102.752 215.207C103.665 213.609 104.846 212.62 106.974 213.438C108.457 214.009 109.256 215.655 108.229 218.454C107.203 221.254 105.604 226.389 105.604 226.389" fill="#FA9400"/>
<path d="M98.9298 223.765C98.9298 223.765 101.839 216.804 102.752 215.207C103.665 213.609 104.846 212.62 106.974 213.438C108.457 214.009 109.256 215.655 108.229 218.454C107.203 221.254 105.604 226.389 105.604 226.389" stroke="#1C1C1C" stroke-linecap="round" stroke-linejoin="round"/>
<path fill-rule="evenodd" clip-rule="evenodd" d="M105.871 225.545C105.871 225.545 107.792 219.729 108.439 217.81C109.086 215.892 109.827 214.409 112.395 215.378C114.962 216.348 114.677 218.696 113.593 221.744C112.509 224.792 111.539 228.271 111.539 228.271" fill="#FA9400"/>
<path d="M105.871 225.545C105.871 225.545 107.792 219.729 108.439 217.81C109.086 215.892 109.827 214.409 112.395 215.378C114.962 216.348 114.677 218.696 113.593 221.744C112.509 224.792 111.539 228.271 111.539 228.271" stroke="#1C1C1C" stroke-linecap="round" stroke-linejoin="round"/>
<path fill-rule="evenodd" clip-rule="evenodd" d="M111.712 227.657C111.712 227.657 113.369 222.362 114.009 220.447C114.649 218.532 115.271 217.338 117.71 217.598C120.15 217.857 120.346 221.421 119.248 224.989C118.149 228.558 117.05 231.295 117.05 231.295" fill="#FA9400"/>
<path d="M111.712 227.657C111.712 227.657 113.369 222.362 114.009 220.447C114.649 218.532 115.271 217.338 117.71 217.598C120.15 217.857 120.346 221.421 119.248 224.989C118.149 228.558 117.05 231.295 117.05 231.295" stroke="#1C1C1C" stroke-linecap="round" stroke-linejoin="round"/>
<path d="M226.329 288.904C226.329 288.904 219.224 287.127 220.21 282.39C221.197 277.654 227.481 288.904 227.481 288.904C227.481 288.904 231.587 284.434 233.552 282.557C235.518 280.681 237.9 281.586 237.394 283.987C237.037 285.684 234.978 286.397 231.23 287.65C227.481 288.904 226.762 289.437 226.762 289.437" stroke="#1C1C1C"/>
<path d="M144.503 296.431C144.503 296.431 139.252 292.639 137.696 291.374C136.141 290.111 138.669 287.096 141.1 289.43C143.531 291.764 145.087 296.431 145.087 296.431C145.087 296.431 150.143 290.597 151.31 289.041C152.477 287.485 156.659 289.178 153.255 291.764C149.851 294.35 145.481 296.431 145.481 296.431" stroke="#1C1C1C"/>
<path d="M177.225 174.961C177.225 174.961 175.085 173.89 170.377 173.249C165.669 172.607 162.567 176.137 162.567 176.137" stroke="#1C1C1C" stroke-linecap="round" stroke-linejoin="round"/>
<path d="M166.469 173.637C166.469 173.637 172.514 188.656 156.679 197.537" stroke="#1C1C1C" stroke-linecap="round" stroke-linejoin="round"/>
<path d="M153.816 159.192C153.816 159.192 150.129 156.388 142.561 157.965C134.994 159.542 116.861 173.637 116.861 173.637" stroke="#1C1C1C" stroke-linecap="round" stroke-linejoin="round"/>
<path d="M190.182 236.252L187.207 229.19L192.577 232.721" stroke="#1C1C1C" stroke-linecap="round" stroke-linejoin="round"/>
<path d="M161.169 247.017V251.988" stroke="#1C1C1C" stroke-linecap="round" stroke-linejoin="round"/>
<path d="M119.959 147.524C119.959 147.524 129.187 157.14 126.727 170.783" stroke="#1C1C1C" stroke-linecap="round" stroke-linejoin="round"/>
<path d="M154.565 140.814L158.711 147.523V141.932" stroke="#1C1C1C" stroke-linecap="round" stroke-linejoin="round"/>
<path d="M175.208 147.364L183.985 140.814" stroke="#1C1C1C" stroke-linecap="round" stroke-linejoin="round"/>
<path fill-rule="evenodd" clip-rule="evenodd" d="M125.225 128.435L124.484 131.261H133.583L125.225 128.435Z" fill="#F6F1E0"/>
<path fill-rule="evenodd" clip-rule="evenodd" d="M135.35 120.194L138.386 121.216L133.584 131.26L135.35 120.194Z" fill="#F6F1E0"/>
<path d="M74.02 291.054V319.633" stroke="#1C1C1C" stroke-linecap="round" stroke-linejoin="round"/>
<path fill-rule="evenodd" clip-rule="evenodd" d="M64.4834 274.13V282.783C64.4834 285.005 67.5745 291.054 73.4958 291.054C79.4163 291.054 83.322 286.536 83.322 283.013V273.364C83.322 271.91 81.1635 270.684 79.5623 272.751C79.5623 272.751 78.9164 271.653 77.5202 271.653C76.1233 271.653 75.817 273.288 75.817 273.288C75.817 273.288 75.5107 271.653 73.9027 271.653C72.2948 271.653 72.0648 273.364 72.0648 273.364C72.0648 273.364 71.605 271.653 69.9207 271.653C68.2356 271.653 68.3831 273.211 68.3831 273.211C68.3831 273.211 67.4255 271.278 65.8622 271.653C64.4721 271.986 64.4834 274.13 64.4834 274.13Z" fill="#FA9400"/>
<path d="M68.2413 280.218V272.917" stroke="#1C1C1C" stroke-linecap="round" stroke-linejoin="round"/>
<path d="M72.0542 280.218V272.917" stroke="#1C1C1C" stroke-linecap="round" stroke-linejoin="round"/>
<path d="M75.867 280.218V272.917" stroke="#1C1C1C" stroke-linecap="round" stroke-linejoin="round"/>
<path d="M79.6224 280.218V272.917" stroke="#1C1C1C" stroke-linecap="round" stroke-linejoin="round"/>
<path d="M63.0227 298.617V319.633" stroke="#1C1C1C" stroke-linecap="round" stroke-linejoin="round"/>
<path d="M44.6835 297.104V319.633" stroke="#1C1C1C" stroke-linecap="round" stroke-linejoin="round"/>
<path fill-rule="evenodd" clip-rule="evenodd" d="M66.4868 298.28C66.4868 300.075 65.0309 301.531 63.2353 301.531C61.4398 301.531 59.9839 300.075 59.9839 298.28C59.9839 296.484 61.4398 295.028 63.2353 295.028C65.0309 295.028 66.4868 296.484 66.4868 298.28Z" fill="#49A7A8"/>
<path d="M53.0306 287.811V319.633" stroke="#1C1C1C" stroke-linecap="round" stroke-linejoin="round"/>
<path fill-rule="evenodd" clip-rule="evenodd" d="M51.7466 294.17C52.3169 295.158 53.7425 295.158 54.3128 294.17L56.5878 290.23L58.8621 286.29C59.4331 285.303 58.7199 284.068 57.5794 284.068H53.0301H48.4808C47.3402 284.068 46.627 285.303 47.1973 286.29L49.4716 290.23L51.7466 294.17Z" fill="#FA9400"/>
<path d="M41.3389 298.692L44.6864 302.398L48.0808 298.692" stroke="#1C1C1C" stroke-linecap="round" stroke-linejoin="round"/>
<path d="M81.247 297.104V319.633" stroke="#1C1C1C" stroke-linecap="round" stroke-linejoin="round"/>
<path d="M77.9005 298.692L81.248 302.398L84.6424 298.692" stroke="#1C1C1C" stroke-linecap="round" stroke-linejoin="round"/>
<path d="M91.3428 319.622H32.8697" stroke="#1C1C1C" stroke-linecap="round" stroke-linejoin="round"/>
<path fill-rule="evenodd" clip-rule="evenodd" d="M37.2074 87.2378C16.8263 79.8197 6.31771 57.2839 13.7358 36.9028C21.154 16.5217 43.6897 6.0131 64.0708 13.4312C84.4519 20.8493 94.9605 43.3851 87.5424 63.7662C80.1243 84.1473 57.5885 94.6559 37.2074 87.2378Z" fill="#E1DCD6"/>
<mask id="mask0" mask-type="alpha" maskUnits="userSpaceOnUse" x="31" y="27" width="51" height="51">
<path fill-rule="evenodd" clip-rule="evenodd" d="M81.2699 40.6339L44.9251 27.4055L31.4609 64.3982L67.8056 77.6266L81.2699 40.6339Z" fill="white"/>
</mask>
<g mask="url(#mask0)">
<path fill-rule="evenodd" clip-rule="evenodd" d="M45.9912 30.2681L48.9286 28.8626L53.1093 35.6887L58.2634 46.3156C58.2634 46.3156 56.2793 48.9033 58.815 52.7732C61.3513 56.6433 67.0815 65.9381 67.6524 67.7326C68.0325 68.9272 68.5753 72.0496 68.8954 74.0043C69.0455 74.9226 68.4203 75.788 67.5004 75.9319L67.2989 75.9637L64.8824 76.3417C63.9651 76.4853 63.1117 75.8517 62.9741 74.9335C62.8203 73.9087 62.5351 72.5125 62.01 71.029C60.9579 68.0619 53.0632 55.1229 51.4621 52.5456C49.8617 49.9678 45.1668 36.3344 45.1668 36.3344L43.4387 31.4895L45.9912 30.2681Z" fill="#FC9500"/>
</g>
<path fill-rule="evenodd" clip-rule="evenodd" d="M33.5784 33.5748L33.6385 33.9753C34.3121 38.4225 36.1456 42.6143 38.9536 46.1274L40.1245 47.592L38.079 51.5054L35.1852 47.8851C32.3773 44.3714 30.5436 40.1802 29.8702 35.7325L29.4598 33.0205L33.5784 33.5748Z" fill="#2B8384"/>
<mask id="mask1" mask-type="alpha" maskUnits="userSpaceOnUse" x="29" y="23" width="28" height="28">
<path fill-rule="evenodd" clip-rule="evenodd" d="M56.7528 31.0302L37.1069 23.8796L29.839 43.8477L49.485 50.9983L56.7528 31.0302Z" fill="white"/>
</mask>
<g mask="url(#mask1)">
<path fill-rule="evenodd" clip-rule="evenodd" d="M34.3544 33.6782L35.7983 33.8725C38.8842 34.2878 42.0244 33.809 44.8462 32.4932L51.8285 29.2369L54.9603 35.9541L48.3779 39.0235C45.1389 40.5339 42.4863 43.0688 40.8312 46.2366L40.5033 46.8644L40.1237 47.5906L38.9532 46.1267C36.1451 42.6136 34.3116 38.4218 33.6382 33.9741L33.578 33.5741L34.3544 33.6782Z" fill="#44A7A9"/>
</g>
<path fill-rule="evenodd" clip-rule="evenodd" d="M83.0885 76.7119C78.7652 75.1384 76.5361 70.3581 78.1097 66.0348C79.6832 61.7116 84.4635 59.4825 88.7868 61.056C93.1101 62.6295 95.3392 67.4099 93.7656 71.7331C92.1921 76.0564 87.4118 78.2855 83.0885 76.7119Z" fill="#E1DCD6"/>
<path fill-rule="evenodd" clip-rule="evenodd" d="M96.5686 81.4299C95.0246 80.868 94.2284 79.1607 94.7904 77.6167C95.3524 76.0727 97.0597 75.2765 98.6037 75.8385C100.148 76.4005 100.944 78.1078 100.382 79.6518C99.8199 81.1958 98.1126 81.9919 96.5686 81.4299Z" fill="#E1DCD6"/>
<path d="M29.0235 65.8742L75.7747 41.1197" stroke="#FF5A5A" stroke-width="3" stroke-linecap="round"/>
</svg>
