<svg width="18" height="18" viewBox="0 0 18 18" fill="none" xmlns="http://www.w3.org/2000/svg">
<path d="M8.99947 7.93252C10.0288 7.93252 10.8661 7.09493 10.8661 6.06587C10.8661 5.03681 10.0288 4.19922 8.99947 4.19922C7.97014 4.19922 7.13281 5.03681 7.13281 6.06587C7.13281 7.09493 7.97014 7.93252 8.99947 7.93252ZM8.99947 4.73255C9.73466 4.73255 10.3328 5.33068 10.3328 6.06587C10.3328 6.80107 9.73466 7.3992 8.99947 7.3992C8.26427 7.3992 7.66614 6.80107 7.66614 6.06587C7.66614 5.33068 8.26427 4.73255 8.99947 4.73255Z" fill="#0D5CAB" stroke="#0D5CAB" stroke-width="0.4"/>
<path d="M8.95368 15.6018L13.0446 9.69327C14.579 7.64768 14.3571 4.28531 12.5697 2.49812C11.6038 1.532 10.3195 1 8.95368 1C7.58783 1 6.30357 1.532 5.33771 2.49786C3.55026 4.28504 3.32839 7.64742 4.85665 9.685L8.95368 15.6018ZM5.71477 2.87492C6.5801 2.00986 7.73023 1.53333 8.95368 1.53333C10.1771 1.53333 11.3273 2.00986 12.1926 2.87492C13.8059 4.48797 14.0046 7.52475 12.6121 9.38127L8.95368 14.6647L5.28944 9.37327C3.90279 7.52475 4.10172 4.48797 5.71477 2.87492Z" fill="#0D5CAB" stroke="#0D5CAB" stroke-width="0.4"/>
<path d="M12.2311 12.4689C12.0845 12.451 11.9522 12.5561 11.9351 12.7025C11.9181 12.8489 12.0226 12.9814 12.1687 12.9985C14.973 13.3286 16.4666 14.2182 16.4666 14.7337C16.4666 15.4574 13.626 16.467 8.99994 16.467C4.37384 16.467 1.53333 15.4574 1.53333 14.7337C1.53333 14.2182 3.02692 13.3286 5.83116 12.9985C5.9773 12.9814 6.08183 12.8486 6.06476 12.7025C6.04743 12.5561 5.91516 12.4505 5.76876 12.4689C2.96105 12.7995 1 13.7307 1 14.7337C1 15.8601 3.74798 17.0003 8.99994 17.0003C14.2519 17.0003 16.9999 15.8601 16.9999 14.7337C16.9999 13.7307 15.0388 12.7995 12.2311 12.4689Z" fill="#0D5CAB" stroke="#0D5CAB" stroke-width="0.4"/>
</svg>
