<svg width="66" height="58" viewBox="0 0 66 58" fill="none" xmlns="http://www.w3.org/2000/svg">
<path d="M64.6722 17H0V49.7131C0 54.2895 3.7126 58 8.2923 58H64.6722C65.4053 58 66 57.4057 66 56.6726V18.3269C66 17.5938 65.4053 17 64.6722 17Z" fill="#49A7A8"/>
<path d="M11.7036 39.5132C11.7036 40.2422 11.1076 40.8326 10.3716 40.8326H8.31779C3.72424 40.8326 0 44.5213 0 49.0716V8.30303C0 3.75273 3.72424 0.0639648 8.31829 0.0639648H10.3716C11.1071 0.0639648 11.7036 0.654828 11.7036 1.38328V39.5132Z" fill="#388586"/>
<path d="M17.2506 26.1321H18.8493C19.4009 26.1321 19.8484 25.6888 19.8484 25.1424C19.8484 24.5961 19.4009 24.1528 18.8493 24.1528H17.2506C16.699 24.1528 16.252 24.5961 16.252 25.1424C16.252 25.6888 16.699 26.1321 17.2506 26.1321Z" fill="black" stroke="#49A7A8" stroke-width="0.8"/>
<path d="M23.3648 26.1321H24.9635C25.5151 26.1321 25.9627 25.6888 25.9627 25.1424C25.9627 24.5961 25.5151 24.1528 24.9635 24.1528H23.3648C22.8132 24.1528 22.3662 24.5961 22.3662 25.1424C22.3662 25.6888 22.8132 26.1321 23.3648 26.1321Z" fill="black" stroke="#49A7A8" stroke-width="0.8"/>
<path d="M29.4786 26.1321H31.0773C31.6289 26.1321 32.0764 25.6888 32.0764 25.1424C32.0764 24.5961 31.6289 24.1528 31.0773 24.1528H29.4786C28.927 24.1528 28.4795 24.5961 28.4795 25.1424C28.4795 25.6888 28.927 26.1321 29.4786 26.1321Z" fill="black" stroke="#49A7A8" stroke-width="0.8"/>
<path d="M17.2506 32.8764H24.9632C25.5148 32.8764 25.9624 32.4332 25.9624 31.8868C25.9624 31.34 25.5148 30.8972 24.9632 30.8972H17.2506C16.699 30.8972 16.252 31.34 16.252 31.8868C16.252 32.4332 16.699 32.8764 17.2506 32.8764Z" fill="black" stroke="#49A7A8" stroke-width="0.8"/>
<path d="M17.2506 36.7378H29.4785C30.0301 36.7378 30.4776 36.2945 30.4776 35.7482C30.4776 35.2018 30.0301 34.7585 29.4785 34.7585H17.2506C16.699 34.7585 16.252 35.2018 16.252 35.7482C16.252 36.2945 16.699 36.7378 17.2506 36.7378Z" fill="black" stroke="#49A7A8" stroke-width="0.8"/>
<path fill-rule="evenodd" clip-rule="evenodd" d="M17.2511 40.2302H20.004C20.5556 40.2302 21.0031 40.673 21.0031 41.2198V43.9465C21.0031 44.4928 20.5556 44.9361 20.004 44.9361H17.2511C16.699 44.9361 16.252 44.4933 16.252 43.9465V41.2198C16.252 40.673 16.699 40.2302 17.2511 40.2302ZM18.2497 42.9569H19.0048V42.2094H18.2497V42.9569Z" fill="black"/>
<path d="M19.0048 42.9569V43.3569H19.4048V42.9569H19.0048ZM18.2497 42.9569H17.8497V43.3569H18.2497V42.9569ZM19.0048 42.2094H19.4048V41.8094H19.0048V42.2094ZM18.2497 42.2094V41.8094H17.8497V42.2094H18.2497ZM20.004 39.8302H17.2511V40.6302H20.004V39.8302ZM21.4031 41.2198C21.4031 40.4484 20.7727 39.8302 20.004 39.8302V40.6302C20.3384 40.6302 20.6031 40.8976 20.6031 41.2198H21.4031ZM21.4031 43.9465V41.2198H20.6031V43.9465H21.4031ZM20.004 45.3361C20.7729 45.3361 21.4031 44.7174 21.4031 43.9465H20.6031C20.6031 44.2683 20.3383 44.5361 20.004 44.5361V45.3361ZM17.2511 45.3361H20.004V44.5361H17.2511V45.3361ZM15.852 43.9465C15.852 44.7179 16.4817 45.3361 17.2511 45.3361V44.5361C16.9163 44.5361 16.652 44.2688 16.652 43.9465H15.852ZM15.852 41.2198V43.9465H16.652V41.2198H15.852ZM17.2511 39.8302C16.4817 39.8302 15.852 40.4485 15.852 41.2198H16.652C16.652 40.8975 16.9163 40.6302 17.2511 40.6302V39.8302ZM19.0048 42.5569H18.2497V43.3569H19.0048V42.5569ZM18.6048 42.2094V42.9569H19.4048V42.2094H18.6048ZM18.2497 42.6094H19.0048V41.8094H18.2497V42.6094ZM18.6497 42.9569V42.2094H17.8497V42.9569H18.6497Z" fill="#49A7A8"/>
<path fill-rule="evenodd" clip-rule="evenodd" d="M23.8565 40.2302H26.6094C27.1615 40.2302 27.6086 40.673 27.6086 41.2198V43.9465C27.6086 44.4928 27.1615 44.9361 26.6094 44.9361H23.8565C23.305 44.9361 22.8574 44.4933 22.8574 43.9465V41.2198C22.8574 40.673 23.305 40.2302 23.8565 40.2302ZM24.8557 42.9569H25.6103V42.2094H24.8557V42.9569Z" fill="black"/>
<path d="M25.6103 42.9569V43.3569H26.0103V42.9569H25.6103ZM24.8557 42.9569H24.4557V43.3569H24.8557V42.9569ZM25.6103 42.2094H26.0103V41.8094H25.6103V42.2094ZM24.8557 42.2094V41.8094H24.4557V42.2094H24.8557ZM26.6094 39.8302H23.8565V40.6302H26.6094V39.8302ZM28.0086 41.2198C28.0086 40.4485 27.3788 39.8302 26.6094 39.8302V40.6302C26.9442 40.6302 27.2086 40.8975 27.2086 41.2198H28.0086ZM28.0086 43.9465V41.2198H27.2086V43.9465H28.0086ZM26.6094 45.3361C27.379 45.3361 28.0086 44.7172 28.0086 43.9465H27.2086C27.2086 44.2685 26.9441 44.5361 26.6094 44.5361V45.3361ZM23.8565 45.3361H26.6094V44.5361H23.8565V45.3361ZM22.4574 43.9465C22.4574 44.718 23.0878 45.3361 23.8565 45.3361V44.5361C23.5221 44.5361 23.2574 44.2687 23.2574 43.9465H22.4574ZM22.4574 41.2198V43.9465H23.2574V41.2198H22.4574ZM23.8565 39.8302C23.0878 39.8302 22.4574 40.4484 22.4574 41.2198H23.2574C23.2574 40.8976 23.5221 40.6302 23.8565 40.6302V39.8302ZM25.6103 42.5569H24.8557V43.3569H25.6103V42.5569ZM25.2103 42.2094V42.9569H26.0103V42.2094H25.2103ZM24.8557 42.6094H25.6103V41.8094H24.8557V42.6094ZM25.2557 42.9569V42.2094H24.4557V42.9569H25.2557Z" fill="#49A7A8"/>
<path fill-rule="evenodd" clip-rule="evenodd" d="M30.4625 40.2302H33.2159C33.7675 40.2302 34.215 40.673 34.215 41.2198V43.9465C34.215 44.4928 33.7675 44.9361 33.2159 44.9361H30.4625C29.9109 44.9361 29.4639 44.4933 29.4639 43.9465V41.2198C29.4639 40.673 29.9109 40.2302 30.4625 40.2302ZM31.4621 42.9569H32.2168V42.2094H31.4621V42.9569Z" fill="black"/>
<path d="M32.2168 42.9569V43.3569H32.6168V42.9569H32.2168ZM31.4621 42.9569H31.0621V43.3569H31.4621V42.9569ZM32.2168 42.2094H32.6168V41.8094H32.2168V42.2094ZM31.4621 42.2094V41.8094H31.0621V42.2094H31.4621ZM33.2159 39.8302H30.4625V40.6302H33.2159V39.8302ZM34.615 41.2198C34.615 40.4484 33.9846 39.8302 33.2159 39.8302V40.6302C33.5503 40.6302 33.815 40.8976 33.815 41.2198H34.615ZM34.615 43.9465V41.2198H33.815V43.9465H34.615ZM33.2159 45.3361C33.9848 45.3361 34.615 44.7174 34.615 43.9465H33.815C33.815 44.2683 33.5502 44.5361 33.2159 44.5361V45.3361ZM30.4625 45.3361H33.2159V44.5361H30.4625V45.3361ZM29.0639 43.9465C29.0639 44.7177 29.6935 45.3361 30.4625 45.3361V44.5361C30.1283 44.5361 29.8639 44.269 29.8639 43.9465H29.0639ZM29.0639 41.2198V43.9465H29.8639V41.2198H29.0639ZM30.4625 39.8302C29.6935 39.8302 29.0639 40.4486 29.0639 41.2198H29.8639C29.8639 40.8974 30.1283 40.6302 30.4625 40.6302V39.8302ZM32.2168 42.5569H31.4621V43.3569H32.2168V42.5569ZM31.8168 42.2094V42.9569H32.6168V42.2094H31.8168ZM31.4621 42.6094H32.2168V41.8094H31.4621V42.6094ZM31.8621 42.9569V42.2094H31.0621V42.9569H31.8621Z" fill="#49A7A8"/>
<path fill-rule="evenodd" clip-rule="evenodd" d="M17.2511 47.179H20.004C20.5556 47.179 21.0031 47.6222 21.0031 48.1686V50.8957C21.0031 51.4421 20.5556 51.8854 20.004 51.8854H17.2511C16.699 51.8854 16.252 51.4421 16.252 50.8957V48.1686C16.252 47.6222 16.699 47.179 17.2511 47.179ZM18.2497 49.9061H19.0048V49.1582H18.2497V49.9061Z" fill="black"/>
<path d="M19.0048 49.9061V50.3061H19.4048V49.9061H19.0048ZM18.2497 49.9061H17.8497V50.3061H18.2497V49.9061ZM19.0048 49.1582H19.4048V48.7582H19.0048V49.1582ZM18.2497 49.1582V48.7582H17.8497V49.1582H18.2497ZM20.004 46.779H17.2511V47.579H20.004V46.779ZM21.4031 48.1686C21.4031 47.3977 20.7729 46.779 20.004 46.779V47.579C20.3383 47.579 20.6031 47.8467 20.6031 48.1686H21.4031ZM21.4031 50.8957V48.1686H20.6031V50.8957H21.4031ZM20.004 52.2854C20.7729 52.2854 21.4031 51.6666 21.4031 50.8957H20.6031C20.6031 51.2176 20.3383 51.4854 20.004 51.4854V52.2854ZM17.2511 52.2854H20.004V51.4854H17.2511V52.2854ZM15.852 50.8957C15.852 51.6665 16.4816 52.2854 17.2511 52.2854V51.4854C16.9164 51.4854 16.652 51.2177 16.652 50.8957H15.852ZM15.852 48.1686V50.8957H16.652V48.1686H15.852ZM17.2511 46.779C16.4816 46.779 15.852 47.3978 15.852 48.1686H16.652C16.652 47.8466 16.9164 47.579 17.2511 47.579V46.779ZM19.0048 49.5061H18.2497V50.3061H19.0048V49.5061ZM18.6048 49.1582V49.9061H19.4048V49.1582H18.6048ZM18.2497 49.5582H19.0048V48.7582H18.2497V49.5582ZM18.6497 49.9061V49.1582H17.8497V49.9061H18.6497Z" fill="#49A7A8"/>
<path fill-rule="evenodd" clip-rule="evenodd" d="M23.8565 47.179H26.6094C27.1615 47.179 27.6086 47.6222 27.6086 48.1686V50.8957C27.6086 51.4421 27.1615 51.8854 26.6094 51.8854H23.8565C23.305 51.8854 22.8574 51.4421 22.8574 50.8957V48.1686C22.8574 47.6222 23.305 47.179 23.8565 47.179ZM24.8557 49.9061H25.6103V49.1582H24.8557V49.9061Z" fill="black"/>
<path d="M25.6103 49.9061V50.3061H26.0103V49.9061H25.6103ZM24.8557 49.9061H24.4557V50.3061H24.8557V49.9061ZM25.6103 49.1582H26.0103V48.7582H25.6103V49.1582ZM24.8557 49.1582V48.7582H24.4557V49.1582H24.8557ZM26.6094 46.779H23.8565V47.579H26.6094V46.779ZM28.0086 48.1686C28.0086 47.3978 27.379 46.779 26.6094 46.779V47.579C26.9441 47.579 27.2086 47.8466 27.2086 48.1686H28.0086ZM28.0086 50.8957V48.1686H27.2086V50.8957H28.0086ZM26.6094 52.2854C27.379 52.2854 28.0086 51.6665 28.0086 50.8957H27.2086C27.2086 51.2177 26.9441 51.4854 26.6094 51.4854V52.2854ZM23.8565 52.2854H26.6094V51.4854H23.8565V52.2854ZM22.4574 50.8957C22.4574 51.6666 23.0877 52.2854 23.8565 52.2854V51.4854C23.5223 51.4854 23.2574 51.2176 23.2574 50.8957H22.4574ZM22.4574 48.1686V50.8957H23.2574V48.1686H22.4574ZM23.8565 46.779C23.0877 46.779 22.4574 47.3977 22.4574 48.1686H23.2574C23.2574 47.8467 23.5223 47.579 23.8565 47.579V46.779ZM25.6103 49.5061H24.8557V50.3061H25.6103V49.5061ZM25.2103 49.1582V49.9061H26.0103V49.1582H25.2103ZM24.8557 49.5582H25.6103V48.7582H24.8557V49.5582ZM25.2557 49.9061V49.1582H24.4557V49.9061H25.2557Z" fill="#49A7A8"/>
<path fill-rule="evenodd" clip-rule="evenodd" d="M30.4625 47.179H33.2159C33.7675 47.179 34.215 47.6222 34.215 48.1686V50.8957C34.215 51.4421 33.7675 51.8854 33.2159 51.8854H30.4625C29.9109 51.8854 29.4639 51.4421 29.4639 50.8957V48.1686C29.4639 47.6222 29.9109 47.179 30.4625 47.179ZM31.4621 49.9061H32.2168V49.1582H31.4621V49.9061Z" fill="black"/>
<path d="M32.2168 49.9061V50.3061H32.6168V49.9061H32.2168ZM31.4621 49.9061H31.0621V50.3061H31.4621V49.9061ZM32.2168 49.1582H32.6168V48.7582H32.2168V49.1582ZM31.4621 49.1582V48.7582H31.0621V49.1582H31.4621ZM33.2159 46.779H30.4625V47.579H33.2159V46.779ZM34.615 48.1686C34.615 47.3977 33.9848 46.779 33.2159 46.779V47.579C33.5502 47.579 33.815 47.8467 33.815 48.1686H34.615ZM34.615 50.8957V48.1686H33.815V50.8957H34.615ZM33.2159 52.2854C33.9848 52.2854 34.615 51.6666 34.615 50.8957H33.815C33.815 51.2176 33.5502 51.4854 33.2159 51.4854V52.2854ZM30.4625 52.2854H33.2159V51.4854H30.4625V52.2854ZM29.0639 50.8957C29.0639 51.6663 29.6933 52.2854 30.4625 52.2854V51.4854C30.1285 51.4854 29.8639 51.2178 29.8639 50.8957H29.0639ZM29.0639 48.1686V50.8957H29.8639V48.1686H29.0639ZM30.4625 46.779C29.6933 46.779 29.0639 47.398 29.0639 48.1686H29.8639C29.8639 47.8465 30.1285 47.579 30.4625 47.579V46.779ZM32.2168 49.5061H31.4621V50.3061H32.2168V49.5061ZM31.8168 49.1582V49.9061H32.6168V49.1582H31.8168ZM31.4621 49.5582H32.2168V48.7582H31.4621V49.5582ZM31.8621 49.9061V49.1582H31.0621V49.9061H31.8621Z" fill="#49A7A8"/>
<path d="M42 26.9242L37.8306 28.9399C37.3652 29.1647 36.857 28.7203 37.0372 28.2467L38.652 24L42 26.9242Z" fill="black"/>
<path d="M42.2674 27.6813L58.7584 8.99838C59.1063 8.60497 59.0749 7.99884 58.6873 7.64433L56.063 5.24544C55.6754 4.89142 55.0803 4.92441 54.7324 5.31831L38.2413 24.0013C37.8935 24.3957 37.9254 25.0008 38.313 25.3553L40.9368 27.7542C41.3248 28.1082 41.9195 28.0762 42.2674 27.6813Z" fill="#E1DCD6" stroke="black"/>
<path d="M57.3492 10.5944C57.8188 10.0624 58.758 8.99838 58.758 8.99838C59.1059 8.60497 59.0744 7.99884 58.6869 7.64433L56.0626 5.24544C55.675 4.89142 55.0799 4.92441 54.732 5.31831C54.732 5.31831 53.7271 6.45681 53.2246 7.02606L57.3492 10.5944Z" fill="#FA9400" stroke="black"/>
<path d="M11.7036 17C11.7036 17 11.7036 35.9983 11.7036 37.5576C11.7036 39.1169 11.8264 40.9104 10.1164 40.9104C8.40637 40.9104 5.8135 40.615 4.00683 41.9451C2.20015 43.2753 0.806641 45.5957 0.806641 45.5957" stroke="black" stroke-width="1.5" stroke-linecap="round" stroke-linejoin="round"/>
<rect x="42" y="35" width="11" height="11" fill="#FA9400"/>
<rect x="48" y="28" width="13" height="13" rx="6.5" fill="white"/>
</svg>
