<svg width="20" height="18" viewBox="0 0 20 18" fill="none" xmlns="http://www.w3.org/2000/svg">
<path d="M0.6 3.42395C0.6 3.28008 0.67726 3.14729 0.802333 3.0762L0.505833 2.55458L0.802333 3.0762L4.80233 0.802515C4.9249 0.732844 5.0751 0.732844 5.19767 0.802515L9.20933 3.08283C9.69961 3.36151 10.3004 3.36151 10.7907 3.08283L14.8023 0.802515C14.9249 0.732844 15.0751 0.732844 15.1977 0.802515L19.1977 3.0762C19.3227 3.14729 19.4 3.28008 19.4 3.42395V16.2813C19.4 16.588 19.069 16.7806 18.8023 16.6291L15.7907 14.9172C15.3004 14.6385 14.6996 14.6385 14.2093 14.9172L10.1977 17.1975C10.0751 17.2672 9.9249 17.2672 9.80233 17.1975L5.79067 14.9172C5.30039 14.6385 4.69961 14.6385 4.20933 14.9172L1.19767 16.6291C0.931009 16.7806 0.6 16.588 0.6 16.2813V3.42395Z" stroke="#4DA7A7" stroke-width="1.2" stroke-linecap="round" stroke-linejoin="round"/>
<rect x="4.16406" y="0.947266" width="1.2" height="13.5" fill="#4DA7A7"/>
<rect x="9.16406" y="2.8418" width="1.2" height="14.625" fill="#4DA7A7"/>
<rect x="14.1641" y="0.947266" width="1.2" height="13.5" fill="#4DA7A7"/>
</svg>
