<svg width="80" height="66" viewBox="0 0 80 66" fill="none" xmlns="http://www.w3.org/2000/svg">
<path d="M70.1 33C70.1 33.4971 70.5029 33.9 71 33.9C71.4971 33.9 71.9 33.4971 71.9 33H70.1ZM61.133 9.89L60.5101 10.5397L60.5107 10.5402L61.133 9.89ZM16.2441 9.24035C15.8853 9.58435 15.8734 10.1541 16.2173 10.5129C16.5613 10.8717 17.1311 10.8836 17.4899 10.5397L16.2441 9.24035ZM7.9 33C7.9 32.5029 7.49706 32.1 7 32.1C6.50294 32.1 6.1 32.5029 6.1 33H7.9ZM15.974 55.22L16.6216 54.595L16.6212 54.5946L15.974 55.22ZM62.6736 55.845C63.0188 55.4874 63.0087 54.9176 62.651 54.5724C62.2934 54.2272 61.7236 54.2373 61.3784 54.595L62.6736 55.845ZM71.9 33C71.9 23.6547 68.0065 15.2227 61.7553 9.2398L60.5107 10.5402C66.4215 16.1973 70.1 24.1653 70.1 33H71.9ZM61.7559 9.24035C55.8478 3.5759 47.8289 0.1 39 0.1V1.9C47.347 1.9 54.9242 5.1841 60.5101 10.5397L61.7559 9.24035ZM39 0.1C30.171 0.1 22.1522 3.5759 16.2441 9.24035L17.4899 10.5397C23.0758 5.1841 30.653 1.9 39 1.9V0.1ZM6.1 33C6.1 41.8722 9.61489 49.934 15.3268 55.8454L16.6212 54.5946C11.2211 49.006 7.9 41.3878 7.9 33H6.1ZM15.3264 55.845C21.309 62.0434 29.7048 65.9 39 65.9V64.1C30.2132 64.1 22.279 60.4566 16.6216 54.595L15.3264 55.845ZM39 65.9C48.2952 65.9 56.691 62.0434 62.6736 55.845L61.3784 54.595C55.721 60.4566 47.7868 64.1 39 64.1V65.9Z" fill="black"/>
<path fill-rule="evenodd" clip-rule="evenodd" d="M61.666 34.8899L68.333 45.1099L78.11 39.3299L61.666 34.8899Z" fill="#49A7A8" stroke="#49A7A8" stroke-width="1.8" stroke-linecap="round" stroke-linejoin="round"/>
<path fill-rule="evenodd" clip-rule="evenodd" d="M17.4435 31.6399L10.8265 21.3799L1.02148 27.1099L17.4435 31.6399Z" fill="#FA9400" stroke="#FA9400" stroke-width="1.6" stroke-linecap="round" stroke-linejoin="round"/>
</svg>
