<svg width="18" height="20" viewBox="0 0 18 20" fill="none" xmlns="http://www.w3.org/2000/svg">
<path d="M14.2647 12.2077C13.2151 12.2077 12.2755 12.6866 11.652 13.4371L7.59642 11.1345C7.72254 10.7796 7.79186 10.398 7.79186 10.0003C7.79186 9.60267 7.72254 9.22107 7.59642 8.86616L11.6517 6.563C12.2751 7.31376 13.2149 7.79273 14.2645 7.79273C16.1368 7.79273 17.6601 6.26893 17.6601 4.39585C17.6602 2.52332 16.137 1 14.2647 1C12.3922 1 10.8688 2.52332 10.8688 4.39577C10.8688 4.79346 10.938 5.17514 11.0642 5.53012L7.00869 7.83337C6.3853 7.083 5.44575 6.60435 4.3964 6.60435C2.52364 6.60435 1 8.12767 1 10.0002C1 11.8726 2.52364 13.396 4.3964 13.396C5.44575 13.396 6.38522 12.9173 7.00861 12.167L11.0642 14.4697C10.938 14.8247 10.8687 15.2065 10.8687 15.6042C10.8687 17.4767 12.3921 19 14.2646 19C16.1369 19 17.6601 17.4766 17.6601 15.6042C17.6602 13.7315 16.137 12.2077 14.2647 12.2077ZM14.2647 2.1883C15.4818 2.1883 16.4719 3.17855 16.4719 4.39577C16.4719 5.61362 15.4818 6.60435 14.2647 6.60435C13.0474 6.60435 12.0571 5.61362 12.0571 4.39577C12.0571 3.17855 13.0474 2.1883 14.2647 2.1883ZM4.39648 12.2077C3.17895 12.2077 2.18838 11.2174 2.18838 10.0003C2.18838 8.78298 3.17895 7.79273 4.39648 7.79273C5.61354 7.79273 6.60363 8.78298 6.60363 10.0003C6.60363 11.2174 5.61346 12.2077 4.39648 12.2077ZM14.2647 17.8118C13.0474 17.8118 12.0571 16.8214 12.0571 15.6043C12.0571 14.3867 13.0474 13.396 14.2647 13.396C15.4818 13.396 16.4719 14.3867 16.4719 15.6043C16.4719 16.8214 15.4818 17.8118 14.2647 17.8118Z" fill="#4DA7A7" stroke="#4DA7A7" stroke-width="0.1"/>
</svg>
