<svg width="56" height="56" viewBox="0 0 56 56" fill="none" xmlns="http://www.w3.org/2000/svg">
<circle cx="28" cy="28" r="27.2" stroke="#70C8ED" stroke-width="1.6"/>
<g clip-path="url(#clip0)">
<path d="M23.9661 36.0827C24.087 35.9999 24.2055 35.9132 24.3203 35.8212C24.4351 35.9132 24.5537 35.9999 24.6745 36.0827M23.9661 36.0827H16.6066C15.6362 36.7477 14.4804 37.1138 13.281 37.1138C12.7116 37.1138 12.25 36.6522 12.25 36.0827C12.25 35.5132 12.7116 35.0517 13.281 35.0517C14.3942 35.0517 15.4508 34.5669 16.1799 33.7212C16.3758 33.494 16.6608 33.3634 16.9607 33.3634C17.2606 33.3634 17.5457 33.494 17.7416 33.7212C18.4706 34.5666 19.5271 35.0516 20.6404 35.0516C21.7537 35.0516 22.8103 34.5666 23.5394 33.7211C23.7353 33.4939 24.0203 33.3633 24.3202 33.3633C24.6201 33.3633 24.9052 33.4939 25.101 33.7211C25.8301 34.5665 26.8866 35.0514 27.9999 35.0514C29.1132 35.0514 30.1698 34.5665 30.8987 33.7211C31.0946 33.4939 31.3796 33.3633 31.6796 33.3633C31.9795 33.3633 32.2646 33.494 32.4604 33.7211C33.1896 34.5666 34.2461 35.0516 35.3594 35.0516C36.4727 35.0516 37.5293 34.5666 38.2582 33.7212M23.9661 36.0827C22.9957 36.7477 21.8397 37.1138 20.6405 37.1138C19.4413 37.1138 18.2854 36.7477 17.3151 36.0827H23.9661ZM24.6745 36.0827C25.6449 36.7477 26.8008 37.1138 28 37.1138C29.1992 37.1138 30.3551 36.7477 31.3255 36.0827M24.6745 36.0827L24.7876 35.9177C24.6701 35.8372 24.5556 35.7535 24.4454 35.6651L24.3203 35.5649L24.1952 35.6651C24.085 35.7535 23.9705 35.8372 23.853 35.9177C22.9155 36.5602 21.7989 36.9138 20.6405 36.9138C19.4822 36.9138 18.3656 36.5602 17.4281 35.9177L17.4281 35.9177C17.3106 35.8372 17.1962 35.7535 17.0859 35.6651L16.9608 35.5649L16.8358 35.6651C16.7255 35.7535 16.6111 35.8372 16.4936 35.9177C15.556 36.5602 14.4395 36.9138 13.281 36.9138C12.822 36.9138 12.45 36.5417 12.45 36.0827C12.45 35.6237 12.822 35.2517 13.281 35.2517C14.4526 35.2517 15.5644 34.7414 16.3313 33.8518C16.4893 33.6687 16.719 33.5634 16.9607 33.5634C17.2025 33.5634 17.4322 33.6687 17.5901 33.8518C18.357 34.7411 19.4687 35.2516 20.6404 35.2516C21.8121 35.2516 22.9239 34.7411 23.6908 33.8517C23.8487 33.6685 24.0785 33.5633 24.3202 33.5633C24.5619 33.5633 24.7917 33.6685 24.9496 33.8517C25.7165 34.741 26.8282 35.2514 27.9999 35.2514C29.1715 35.2514 30.2834 34.741 31.0502 33.8517C31.2081 33.6685 31.4378 33.5633 31.6796 33.5633C31.9213 33.5633 32.1511 33.6686 32.3089 33.8517L32.309 33.8517C33.076 34.7411 34.1877 35.2516 35.3594 35.2516C36.531 35.2516 37.6428 34.7412 38.4097 33.8518M24.6745 36.0827L24.7876 35.9177C25.7251 36.5602 26.8416 36.9138 28 36.9138C29.1584 36.9138 30.2749 36.5602 31.2124 35.9177L31.3255 36.0827M31.3255 36.0827C31.4463 35.9999 31.5648 35.9132 31.6797 35.8212C31.7945 35.9132 31.913 35.9999 32.0339 36.0827M31.3255 36.0827L31.2124 35.9177C31.3299 35.8373 31.4442 35.7535 31.5547 35.665L31.6797 35.5649L31.8048 35.6651C31.915 35.7535 32.0295 35.8372 32.147 35.9177L32.0339 36.0827M32.0339 36.0827C33.0042 36.7477 34.1601 37.1138 35.3595 37.1138C36.5588 37.1138 37.7146 36.7477 38.6849 36.0827M32.0339 36.0827L32.147 35.9177C33.0844 36.5602 34.201 36.9138 35.3595 36.9138C36.518 36.9138 37.6344 36.5602 38.5719 35.9177L38.6849 36.0827M38.6849 36.0827C38.8058 35.9999 38.9243 35.9132 39.0392 35.8212C39.1539 35.9132 39.2725 35.9999 39.3934 36.0827M38.6849 36.0827L38.5719 35.9177C38.6893 35.8373 38.8037 35.7535 38.9142 35.665L39.0392 35.5649L39.1642 35.6651C39.2745 35.7535 39.3889 35.8372 39.5064 35.9177L39.3934 36.0827M39.3934 36.0827C40.3637 36.7477 41.5196 37.1138 42.719 37.1138C43.2884 37.1138 43.75 36.6522 43.75 36.0827C43.75 35.5132 43.2883 35.0517 42.7188 35.0517C41.6057 35.0517 40.5491 34.5667 39.8199 33.7212C39.6241 33.4941 39.339 33.3634 39.039 33.3634C38.7391 33.3634 38.4541 33.494 38.2582 33.7212M39.3934 36.0827L39.5064 35.9177C40.4439 36.5602 41.5605 36.9138 42.719 36.9138C43.178 36.9138 43.55 36.5417 43.55 36.0827C43.55 35.6237 43.1779 35.2517 42.7188 35.2517C41.5473 35.2517 40.4355 34.7413 39.6684 33.8518L39.6684 33.8518C39.5106 33.6688 39.2808 33.5634 39.039 33.5634C38.7973 33.5634 38.5676 33.6687 38.4097 33.8518M38.2582 33.7212L38.4097 33.8518M38.2582 33.7212L38.4097 33.8518C38.4097 33.8518 38.4097 33.8518 38.4097 33.8518" fill="#43A1C9" stroke="#43A1C9" stroke-width="0.4"/>
<path d="M39.3934 28.8444C40.3638 29.5095 41.5196 29.8755 42.719 29.8755C43.2884 29.8755 43.75 29.4139 43.75 28.8444C43.75 28.2751 43.2883 27.8134 42.7188 27.8134C41.6057 27.8134 40.5491 27.3285 39.8199 26.4829C39.6241 26.2558 39.339 26.1251 39.039 26.1251C38.7391 26.1251 38.4541 26.2557 38.2582 26.4829M39.3934 28.8444L16.1799 26.4829C16.3758 26.2557 16.6608 26.1251 16.9607 26.1251C17.2606 26.1251 17.5457 26.2557 17.7416 26.4829C18.4706 27.3283 19.5271 27.8133 20.6404 27.8133C21.7537 27.8133 22.8103 27.3283 23.5394 26.4828C23.7353 26.2556 24.0203 26.125 24.3202 26.125C24.6201 26.125 24.9052 26.2556 25.101 26.4828C25.8301 27.3282 26.8866 27.8132 27.9999 27.8132C29.1132 27.8132 30.1698 27.3282 30.8987 26.4828C31.0946 26.2556 31.3796 26.125 31.6796 26.125C31.9795 26.125 32.2646 26.2557 32.4604 26.4828C33.1896 27.3283 34.2461 27.8133 35.3594 27.8133C36.4727 27.8133 37.5293 27.3283 38.2582 26.4829M39.3934 28.8444C39.2725 28.7616 39.1539 28.6749 39.0392 28.5829L39.3934 28.8444ZM38.2582 26.4829L38.4097 26.6135M38.2582 26.4829L38.4097 26.6135C38.4097 26.6135 38.4097 26.6135 38.4097 26.6135M38.4097 26.6135C38.5676 26.4304 38.7973 26.3251 39.039 26.3251C39.2808 26.3251 39.5106 26.4305 39.6684 26.6135L39.6684 26.6135C40.4355 27.503 41.5473 28.0134 42.7188 28.0134C43.1779 28.0134 43.55 28.3855 43.55 28.8444C43.55 29.3035 43.178 29.6755 42.719 29.6755C41.5605 29.6755 40.444 29.322 39.5064 28.6795C39.3889 28.5989 39.2745 28.5152 39.1642 28.4268L39.0392 28.3266L38.9142 28.4268C38.8037 28.5152 38.6893 28.599 38.5719 28.6795L38.6849 28.8444M38.4097 26.6135C37.6428 27.5029 36.531 28.0133 35.3594 28.0133C34.1877 28.0133 33.076 27.5029 32.309 26.6134L32.3089 26.6134C32.1511 26.4304 31.9213 26.325 31.6796 26.325C31.4378 26.325 31.2081 26.4303 31.0502 26.6134C30.2834 27.5028 29.1715 28.0132 27.9999 28.0132C26.8282 28.0132 25.7165 27.5027 24.9496 26.6134C24.7917 26.4303 24.5619 26.325 24.3202 26.325C24.0785 26.325 23.8487 26.4303 23.6908 26.6134C22.9239 27.5029 21.8121 28.0133 20.6404 28.0133C19.4687 28.0133 18.357 27.5029 17.5901 26.6135C17.4322 26.4304 17.2025 26.3251 16.9607 26.3251C16.719 26.3251 16.4893 26.4304 16.3314 26.6135L38.6849 28.8444M38.6849 28.8444L38.5719 28.6795C37.6344 29.322 36.518 29.6755 35.3595 29.6755C34.201 29.6755 33.0845 29.322 32.147 28.6795C32.0295 28.5989 31.915 28.5152 31.8048 28.4268L31.6797 28.3266L31.5547 28.4268C31.4442 28.5152 31.3299 28.599 31.2124 28.6795L31.3255 28.8444L31.2124 28.6795C30.2749 29.322 29.1584 29.6755 28 29.6755C26.8416 29.6755 25.7251 29.322 24.7876 28.6795L24.6745 28.8444L24.7876 28.6795C24.6701 28.5989 24.5556 28.5152 24.4454 28.4268L24.3204 28.3267L24.1953 28.4268C24.0849 28.5152 23.9705 28.599 23.853 28.6795C22.9155 29.322 21.7989 29.6755 20.6405 29.6755C19.4822 29.6755 18.3656 29.322 17.4281 28.6795L17.4281 28.6795C17.3106 28.5989 17.1962 28.5152 17.0859 28.4268L16.9609 28.3267L16.8358 28.4268C16.7254 28.5152 16.611 28.599 16.4936 28.6795C15.556 29.322 14.4395 29.6755 13.281 29.6755C12.822 29.6755 12.45 29.3035 12.45 28.8444C12.45 28.3854 12.822 28.0134 13.281 28.0134C14.4526 28.0134 15.5644 27.503 16.3313 26.6135L38.6849 28.8444Z" fill="#43A1C9" stroke="#43A1C9" stroke-width="0.4"/>
<path d="M16.9609 21.0884L17.0859 21.1886C17.1961 21.2769 17.3106 21.3607 17.4281 21.4412L17.4281 21.4412C18.3656 22.0837 19.4822 22.4372 20.6405 22.4372C21.7989 22.4372 22.9155 22.0837 23.853 21.4412C23.9705 21.3607 24.0849 21.2769 24.1953 21.1885L24.3204 21.0884L24.4454 21.1886C24.5556 21.2769 24.6701 21.3607 24.7876 21.4412L24.6745 21.6062L24.7876 21.4412C25.7251 22.0837 26.8416 22.4372 28 22.4372C29.1584 22.4372 30.2749 22.0837 31.2124 21.4412L31.3255 21.6062L31.2124 21.4412C31.3299 21.3607 31.4442 21.2769 31.5547 21.1885L31.6797 21.0884L31.8048 21.1886C31.915 21.2769 32.0295 21.3607 32.147 21.4412C33.0845 22.0837 34.201 22.4372 35.3595 22.4372C36.518 22.4372 37.6344 22.0837 38.5719 21.4412L38.6849 21.6062L38.5719 21.4412C38.6893 21.3607 38.8037 21.2769 38.9142 21.1885L39.0392 21.0884L39.1642 21.1886C39.2745 21.2769 39.3889 21.3607 39.5064 21.4412C40.444 22.0837 41.5605 22.4372 42.719 22.4372C43.178 22.4372 43.55 22.0652 43.55 21.6062C43.55 21.1471 43.178 20.7751 42.719 20.7751C41.5474 20.7751 40.4356 20.2647 39.6685 19.3752L39.6685 19.3752C39.5107 19.1922 39.2809 19.0868 39.0392 19.0868C38.7974 19.0868 38.5677 19.1921 38.4098 19.3752C37.643 20.2646 36.5311 20.775 35.3595 20.775C34.1878 20.775 33.0761 20.2646 32.3091 19.3751L32.3091 19.3751C32.1513 19.1921 31.9214 19.0867 31.6797 19.0867C31.438 19.0867 31.2082 19.192 31.0503 19.3751C30.2835 20.2645 29.1717 20.7749 28 20.7749C26.8283 20.7749 25.7166 20.2645 24.9497 19.3751C24.7918 19.192 24.562 19.0867 24.3203 19.0867C24.0786 19.0867 23.8489 19.192 23.6909 19.3751C22.924 20.2646 21.8122 20.775 20.6405 20.775C19.4689 20.775 18.357 20.2647 17.5902 19.3753L16.9609 21.0884ZM16.9609 21.0884L16.8358 21.1885M16.9609 21.0884L16.8358 21.1885M16.8358 21.1885C16.7254 21.2769 16.611 21.3607 16.4936 21.4412C15.556 22.0837 14.4395 22.4372 13.281 22.4372C12.822 22.4372 12.45 22.0652 12.45 21.6062C12.45 21.1471 12.822 20.7751 13.281 20.7751C14.4526 20.7751 15.5644 20.2648 16.3315 19.3753L16.1804 19.2451M16.8358 21.1885L16.1804 19.2451M16.1804 19.2451L16.3315 19.3753C16.4894 19.1922 16.7191 19.0869 16.9608 19.0869C17.2026 19.0869 17.4323 19.1922 17.5902 19.3753L16.1804 19.2451Z" fill="#43A1C9" stroke="#43A1C9" stroke-width="0.4"/>
</g>
<defs>
<clipPath id="clip0">
<rect width="31.5" height="31.5" fill="white" transform="translate(12.25 12.25)"/>
</clipPath>
</defs>
</svg>
