<svg width="56" height="56" viewBox="0 0 56 56" fill="none" xmlns="http://www.w3.org/2000/svg">
<circle cx="28" cy="28" r="27.2" stroke="#6D4E94" stroke-width="1.6"/>
<path d="M40.9291 26.0642L40.3188 25.4701L38.1769 20.1622C37.812 19.2656 36.8786 18.6715 35.8376 18.666H20.5393C19.4983 18.666 18.565 19.2656 18.2 20.1622L16.088 25.4041L15.2085 26.1522C14.4427 26.7517 14 27.6318 14 28.5559V36.2896C14.006 37.5547 15.1248 38.5778 16.5009 38.5778H18.0803C19.4564 38.5778 20.5752 37.5547 20.5812 36.2896V35.1675H35.4188V36.2896C35.4248 37.5547 36.5436 38.5778 37.9197 38.5778H39.4991C40.8752 38.5778 41.994 37.5547 42 36.2896V28.3524C41.994 27.4888 41.6111 26.6637 40.9291 26.0642ZM19.3248 20.5362C19.5162 20.0686 20.0009 19.7661 20.5393 19.7661H35.8436C36.3821 19.7661 36.8667 20.0741 37.0581 20.5362L38.9248 25.1566H37.5308C37.2017 23.0939 35.1137 21.6693 32.8701 21.9773C31.0812 22.2193 29.6752 23.512 29.412 25.1566H17.4581L19.3248 20.5362ZM36.3103 25.1566H30.6205C30.9496 23.71 32.4932 22.7859 34.0667 23.0884C35.1915 23.3084 36.0709 24.117 36.3103 25.1566ZM19.3846 36.2896C19.3786 36.9497 18.7983 37.4777 18.0803 37.4777H16.5009C15.7829 37.4777 15.2026 36.9497 15.1966 36.2896V34.8485C15.5556 35.063 16.0282 35.1675 16.5009 35.1675H19.3846V36.2896ZM40.8034 36.2896C40.7974 36.9497 40.2171 37.4777 39.4991 37.4777H37.9197C37.2017 37.4777 36.6214 36.9442 36.6154 36.2896V35.1675H39.4991C39.9718 35.1675 40.4444 35.063 40.8034 34.8485V36.2896ZM39.4991 34.0674H16.5009C15.7889 34.0729 15.2026 33.5504 15.1966 32.8903V28.5559C15.1966 27.9509 15.4897 27.3733 15.9923 26.9828C15.9983 26.9773 16.0103 26.9663 16.0162 26.9608L16.8299 26.2567H39.4872L40.0615 26.8233C40.0675 26.8343 40.0855 26.8398 40.0915 26.8508C40.5402 27.2413 40.7974 27.7858 40.7974 28.3524V32.8903H40.8034C40.7974 33.5449 40.2111 34.0729 39.4991 34.0674Z" fill="#6D4E94"/>
<path d="M21.897 28.457H17.4098C17.0808 28.457 16.8115 28.7046 16.8115 29.0071V31.8673C16.8115 32.1699 17.0808 32.4174 17.4098 32.4174H21.897C22.2261 32.4174 22.4953 32.1699 22.4953 31.8673V29.0071C22.4953 28.7046 22.2261 28.457 21.897 28.457ZM21.2987 31.3173H18.0081V29.5571H21.2987V31.3173Z" fill="#6D4E94"/>
<path d="M38.5904 28.457H34.1032C33.7741 28.457 33.5049 28.7046 33.5049 29.0071V31.8673C33.5049 32.1699 33.7741 32.4174 34.1032 32.4174H38.5904C38.9194 32.4174 39.1886 32.1699 39.1886 31.8673V29.0071C39.1886 28.7046 38.9194 28.457 38.5904 28.457ZM37.9921 31.3173H34.7015V29.5571H37.9921V31.3173Z" fill="#6D4E94"/>
<path d="M30.8895 30.7656H25.11C24.7809 30.7656 24.5117 31.0131 24.5117 31.3157C24.5117 31.6182 24.7809 31.8657 25.11 31.8657H30.8895C31.2185 31.8657 31.4878 31.6182 31.4878 31.3157C31.4878 31.0131 31.2185 30.7656 30.8895 30.7656Z" fill="#6D4E94"/>
<path d="M30.8895 29.0605H25.11C24.7809 29.0605 24.5117 29.3081 24.5117 29.6106C24.5117 29.9131 24.7809 30.1606 25.11 30.1606H30.8895C31.2185 30.1606 31.4878 29.9131 31.4878 29.6106C31.4878 29.3081 31.2185 29.0605 30.8895 29.0605Z" fill="#6D4E94"/>
</svg>
