<svg width="56" height="56" viewBox="0 0 56 56" fill="none" xmlns="http://www.w3.org/2000/svg">
<circle cx="28" cy="28" r="27.2" stroke="#3CBA39" stroke-width="1.6"/>
<g clip-path="url(#clip0)">
<path d="M42.8744 27.0085C42.8749 25.7011 42.3016 24.4593 41.3061 23.6116C41.6855 22.9927 41.8852 22.2804 41.8827 21.5545C41.8801 19.5431 40.3746 17.8511 38.3772 17.6146C38.4004 17.4414 38.4121 17.2668 38.4119 17.092C38.4171 14.9062 36.6493 13.1302 34.4635 13.125C33.1774 13.122 31.9699 13.7442 31.2259 14.7934C29.9633 13.0115 27.4953 12.5906 25.7134 13.8532C25.3492 14.1113 25.0313 14.4292 24.7732 14.7934C23.5036 13.0121 21.0304 12.5973 19.2492 13.8669C18.0545 14.7184 17.4284 16.1604 17.6219 17.6146C15.6245 17.8511 14.119 19.5431 14.1164 21.5545C14.114 22.2804 14.3136 22.9927 14.6931 23.6116C12.8173 25.2102 12.5926 28.0267 14.1911 29.9025C14.3448 30.0829 14.5127 30.2508 14.6931 30.4045C14.3135 31.0237 14.1138 31.7363 14.1164 32.4626C14.1189 34.6523 15.8933 36.4268 18.083 36.4293H21.058V41.8833H19.5705C19.2967 41.8833 19.0747 42.1054 19.0747 42.3792C19.0747 42.653 19.2967 42.875 19.5705 42.875H36.4286C36.7024 42.875 36.9245 42.653 36.9245 42.3792C36.9245 42.1054 36.7024 41.8833 36.4286 41.8833H34.9411V36.4293H37.9161C40.1058 36.4268 41.8802 34.6523 41.8827 32.4626C41.8852 31.7367 41.6855 31.0244 41.3061 30.4055C42.3016 29.5578 42.8749 28.316 42.8744 27.0085ZM18.083 35.4331C16.4424 35.4315 15.1122 34.1033 15.1081 32.4626C15.1062 31.7883 15.336 31.1338 15.7591 30.6087C15.93 30.3948 15.8951 30.0828 15.6811 29.9119C15.6708 29.9036 15.6601 29.8957 15.649 29.8883C14.0586 28.8183 13.6367 26.6617 14.7066 25.0712C14.9569 24.6991 15.2769 24.3791 15.649 24.1288C15.876 23.9756 15.9359 23.6674 15.7827 23.4405C15.7752 23.4294 15.7673 23.4188 15.7591 23.4084C15.336 22.8833 15.1062 22.2288 15.1081 21.5545C15.1097 19.9121 16.4407 18.5811 18.083 18.5795L18.2115 18.5864C18.3718 18.5944 18.5257 18.5226 18.6225 18.3946C18.721 18.2681 18.7519 18.1016 18.7053 17.9483C18.2408 16.3723 19.1419 14.7182 20.718 14.2537C22.119 13.8408 23.6125 14.5061 24.2427 15.8237C24.2427 15.8286 24.2427 15.8336 24.2392 15.8386C24.1774 16.0244 24.1296 16.2147 24.0964 16.4078C24.0905 16.441 24.086 16.4747 24.0811 16.5069C24.0217 16.873 24.0172 17.2458 24.0677 17.6131C22.0697 17.8497 20.564 19.5425 20.5622 21.5545C20.5597 22.2804 20.7594 22.9927 21.1388 23.6116C21.1299 23.6196 21.1225 23.628 21.1135 23.6359L18.8055 21.3279C18.6085 21.1377 18.2946 21.1431 18.1044 21.3401C17.9188 21.5322 17.9188 21.8368 18.1044 22.029L20.4407 24.3653C19.051 26.2496 19.3559 28.8879 21.1388 30.4055C20.9475 30.7175 20.8012 31.055 20.7045 31.408L18.9294 29.633C18.7325 29.4427 18.4186 29.4481 18.2283 29.6451C18.0428 29.8372 18.0428 30.1419 18.2283 30.3341L20.5731 32.6788C20.5771 32.7477 20.578 32.8172 20.5855 32.8846C20.5904 32.9312 20.5999 32.9758 20.6063 33.0214C20.6192 33.1132 20.6321 33.2044 20.6514 33.2941C20.6628 33.3477 20.6787 33.3993 20.6921 33.4518C20.7124 33.5312 20.7327 33.611 20.758 33.6883C20.7759 33.7434 20.7972 33.7959 20.8175 33.85C20.8448 33.9224 20.8721 33.9952 20.9038 34.0656C20.9276 34.1192 20.9534 34.1713 20.9797 34.2233C21.0134 34.2913 21.0481 34.3582 21.0853 34.4217C21.1145 34.4712 21.1458 34.5208 21.1775 34.5704C21.2172 34.6334 21.2578 34.6949 21.301 34.7548C21.3352 34.8044 21.3709 34.8505 21.4076 34.8972C21.4527 34.9557 21.4998 35.0117 21.5484 35.0672C21.5875 35.1118 21.6272 35.156 21.6679 35.1986C21.7175 35.2522 21.7725 35.3032 21.827 35.3538C21.8543 35.3796 21.8796 35.4083 21.9079 35.4331H18.083ZM27.5037 41.8833H22.0497V36.4293H27.5037V41.8833ZM27.9996 19.5711C27.7258 19.5711 27.5037 19.7932 27.5037 20.067V23.5804L25.2512 21.3279C25.0542 21.1377 24.7403 21.1431 24.5501 21.3401C24.3645 21.5322 24.3645 21.8368 24.5501 22.029L27.5037 24.9826V31.7615L25.3752 29.633C25.1782 29.4427 24.8643 29.4481 24.6741 29.6451C24.4885 29.8372 24.4885 30.1419 24.6741 30.3341L27.5037 33.1637V35.4376H24.5288C22.8864 35.436 21.5554 34.105 21.5538 32.4626C21.5519 31.7883 21.7817 31.1338 22.2049 30.6087C22.3757 30.3948 22.3408 30.0828 22.1269 29.9119C22.1165 29.9036 22.1058 29.8957 22.0948 29.8883C20.5044 28.8183 20.0824 26.6617 21.1523 25.0712C21.4027 24.6991 21.7227 24.3791 22.0948 24.1288C22.3217 23.9756 22.3816 23.6674 22.2284 23.4405C22.221 23.4294 22.2131 23.4188 22.2049 23.4084C21.7817 22.8833 21.5519 22.2288 21.5538 21.5545C21.5554 19.9121 22.8864 18.5811 24.5288 18.5795L24.6572 18.5864C24.8177 18.5954 24.972 18.5233 25.0682 18.3946C25.1668 18.2681 25.1977 18.1016 25.1511 17.9483C25.0675 17.6705 25.0249 17.3821 25.0246 17.092C25.0249 16.909 25.0423 16.7264 25.0767 16.5466C25.0767 16.5397 25.0767 16.5322 25.0797 16.5253C25.1156 16.3463 25.1675 16.1709 25.2348 16.0012C25.6825 14.8653 26.7787 14.1183 27.9996 14.1171C29.2205 14.1183 30.3166 14.8653 30.7643 16.0012C30.8318 16.172 30.8837 16.3486 30.9195 16.5288C30.9195 16.5357 30.9195 16.5431 30.9225 16.5501C30.9566 16.7287 30.974 16.9102 30.9745 17.092C30.9743 17.3821 30.9316 17.6705 30.8481 17.9483C30.8015 18.1016 30.8324 18.2681 30.9309 18.3946C31.0275 18.5228 31.1815 18.5947 31.3419 18.5864L31.4704 18.5795C33.1127 18.5811 34.4437 19.9121 34.4453 21.5545C34.4472 22.2288 34.2174 22.8833 33.7943 23.4084C33.6234 23.6223 33.6583 23.9343 33.8723 24.1052C33.8826 24.1135 33.8933 24.1214 33.9044 24.1288C35.4948 25.1988 35.9167 27.3554 34.8468 28.9459C34.5964 29.318 34.2764 29.638 33.9044 29.8883C33.6774 30.0415 33.6175 30.3497 33.7708 30.5766C33.7782 30.5877 33.7861 30.5983 33.7943 30.6087C34.2174 31.1338 34.4472 31.7883 34.4453 32.4626C34.4437 34.105 33.1127 35.436 31.4704 35.4376H28.4954V28.6671C28.5324 28.6488 28.5669 28.6258 28.598 28.5987L31.8209 25.3758C32.0112 25.1788 32.0057 24.865 31.8088 24.6747C31.6166 24.4891 31.312 24.4891 31.1198 24.6747L28.4954 27.2991V20.067C28.4954 19.7931 28.2734 19.5711 27.9996 19.5711ZM33.9495 41.8833H28.4954V36.4293H33.9495V41.8833ZM40.2164 30.5766C40.2239 30.5877 40.2317 30.5983 40.24 30.6087C40.6631 31.1338 40.8929 31.7883 40.891 32.4626C40.8894 34.105 39.5584 35.436 37.916 35.4376H34.0913C34.1196 35.4128 34.1448 35.3841 34.1721 35.3583C34.2267 35.3087 34.2797 35.2566 34.3313 35.2031C34.3719 35.1604 34.4116 35.1163 34.4508 35.0717C34.5004 35.0161 34.5465 34.9601 34.5916 34.9016C34.6283 34.855 34.664 34.8079 34.6982 34.7593C34.7413 34.6993 34.782 34.6378 34.8217 34.5749C34.8534 34.5253 34.8846 34.4757 34.9139 34.4261C34.9511 34.3607 34.9858 34.2937 35.0195 34.2278C35.0453 34.1757 35.0691 34.1237 35.0953 34.0701C35.1271 33.9997 35.1544 33.9268 35.1816 33.8544C35.202 33.8004 35.2233 33.7478 35.2411 33.6928C35.2664 33.6154 35.2867 33.5356 35.3071 33.4563C35.3205 33.4037 35.3363 33.3522 35.3477 33.2986C35.3671 33.2089 35.38 33.1176 35.3928 33.0259C35.3993 32.9803 35.4087 32.9357 35.4137 32.8891C35.4291 32.7474 35.4369 32.6051 35.437 32.4626C35.4395 31.7367 35.2398 31.0244 34.8603 30.4055C35.7961 29.6061 36.3595 28.4551 36.4167 27.2257L38.2667 25.3758C38.4569 25.1788 38.4515 24.865 38.2545 24.6747C38.0624 24.4891 37.7578 24.4891 37.5656 24.6747L36.2957 25.9445C36.0737 25.0363 35.5715 24.221 34.8603 23.6141C35.2402 22.9945 35.4399 22.2813 35.437 21.5545C35.4344 19.5431 33.9289 17.8511 31.9315 17.6146C31.9814 17.2472 31.9764 16.8743 31.9166 16.5084C31.9116 16.4747 31.9072 16.441 31.9012 16.4093C31.868 16.2162 31.8202 16.0259 31.7584 15.8401C31.7584 15.8351 31.7584 15.8301 31.755 15.8252C32.4639 14.343 34.2402 13.7161 35.7224 14.4251C37.04 15.0553 37.7052 16.5488 37.2924 17.9498C37.2457 18.1031 37.2766 18.2696 37.3752 18.396C37.472 18.5241 37.6259 18.5959 37.7862 18.5879L37.9161 18.5795C39.5585 18.5811 40.8895 19.9121 40.8911 21.5545C40.893 22.2288 40.6632 22.8833 40.24 23.4084C40.0692 23.6223 40.1041 23.9343 40.318 24.1052C40.3284 24.1135 40.3391 24.1214 40.3501 24.1288C41.9405 25.1988 42.3625 27.3554 41.2925 28.9459C41.0422 29.318 40.7222 29.638 40.3501 29.8883C40.1231 30.0415 40.0633 30.3497 40.2164 30.5766Z" fill="#1D8A1B" stroke="#1D8A1B" stroke-width="0.4"/>
</g>
<defs>
<clipPath id="clip0">
<rect width="31.5" height="31.5" fill="white" transform="translate(12.25 12.25)"/>
</clipPath>
</defs>
</svg>
