<svg width="56" height="56" viewBox="0 0 56 56" fill="none" xmlns="http://www.w3.org/2000/svg">
<circle cx="28" cy="28" r="27.2" stroke="#358EE8" stroke-width="1.6"/>
<g clip-path="url(#clip0)">
<path d="M30.1049 26.9286C30.1419 27.1873 30.3633 27.3796 30.6248 27.3796C30.6499 27.3796 30.6751 27.3778 30.6999 27.3744C30.987 27.3332 31.1862 27.0671 31.1452 26.7802C30.5766 22.8017 26.2133 21.6666 26.028 21.6205C25.7475 21.5523 25.4648 21.7232 25.3948 22.0029C25.3246 22.2829 25.4935 22.5669 25.7727 22.6389C25.8111 22.6484 29.6358 23.6418 30.1049 26.9286Z" fill="#085098" stroke="#085098" stroke-width="0.4"/>
<path d="M43.225 27.905C42.2411 27.9017 41.2701 28.1291 40.3901 28.5692C40.0917 28.7076 39.7851 28.8281 39.4723 28.9299C39.2867 26.137 37.9804 23.5376 35.8499 21.7222C31.2436 17.8372 23.8377 18.0772 21.7 18.2346V17.2371C21.7 16.3673 20.9948 15.6621 20.125 15.6621H18.025C17.1552 15.6621 16.45 16.3673 16.45 17.2371H12.25V24.5871H16.45C16.45 25.4569 17.1552 26.1621 18.025 26.1621H20.125C20.9948 26.1621 21.7 25.4569 21.7 24.5871V23.5686C24.041 23.8452 24.7664 25.9898 24.9067 28.0688C24.2199 27.5995 23.4027 27.3585 22.5711 27.38C21.5646 27.3664 20.5867 27.7146 19.8153 28.3608C19.2219 28.8768 18.459 29.156 17.6728 29.1442C16.8976 29.1657 16.1316 28.9707 15.461 28.5813C14.6427 28.1186 13.7148 27.8848 12.775 27.905C12.4851 27.905 12.25 28.1401 12.25 28.43V31.58C12.2531 31.6085 12.2587 31.6367 12.2669 31.6641C12.2587 31.6915 12.2531 31.7197 12.25 31.7482C12.25 32.0381 12.4851 32.2732 12.775 32.2732C13.561 32.2614 14.3236 32.54 14.917 33.0558C15.6884 33.7026 16.6664 34.0507 17.6728 34.0371C18.6792 34.0504 19.6572 33.7023 20.429 33.0558C21.6669 32.012 23.477 32.012 24.7152 33.0558C25.487 33.7023 26.4652 34.0504 27.4719 34.0371C28.5176 34.0299 29.5345 33.6933 30.3776 33.0748C31.7591 32.0053 33.6889 32.0053 35.0701 33.0748C36.794 34.3586 39.156 34.3586 40.8799 33.0748C41.5544 32.5611 42.3773 32.2798 43.225 32.2732C43.5149 32.2732 43.75 32.0381 43.75 31.7482C43.7469 31.7197 43.7413 31.6915 43.7331 31.6641C43.7413 31.6367 43.7469 31.6085 43.75 31.58V28.43C43.75 28.1401 43.5149 27.905 43.225 27.905ZM13.3 23.5371V18.2871H16.45V23.5371H13.3ZM20.65 24.5871C20.65 24.877 20.4149 25.1121 20.125 25.1121H18.025C17.7351 25.1121 17.5 24.877 17.5 24.5871V17.2371C17.5 16.9472 17.7351 16.7121 18.025 16.7121H20.125C20.4149 16.7121 20.65 16.9472 20.65 17.2371V24.5871ZM21.7 22.5112V19.2925C23.5967 19.1518 30.8585 18.8862 35.1726 22.5248C37.1137 24.1887 38.2918 26.5725 38.4349 29.1252C38.2901 29.1368 38.1393 29.1442 37.975 29.1442C37.7322 29.1455 37.4897 29.124 37.2511 29.0796C36.1795 23.6637 32.0182 22.2161 31.8434 22.1569C31.5681 22.0652 31.2705 22.2144 31.179 22.4897C31.0872 22.7652 31.2364 23.0629 31.5117 23.1544C31.5473 23.1659 34.9106 24.342 36.0619 28.6064C35.9191 28.5236 35.7778 28.4354 35.6325 28.3439C33.908 27.0604 31.5455 27.0604 29.8214 28.3439C29.4622 28.5879 29.0767 28.7907 28.6719 28.9484C28.6678 27.7845 28.4209 26.6346 27.9474 25.5715C27.8182 25.3118 27.5029 25.2062 27.2433 25.3354C26.9836 25.4648 26.878 25.7802 27.0072 26.0398C27.4304 27.0168 27.6403 28.0727 27.6232 29.1373C27.5706 29.1373 27.5265 29.1437 27.4745 29.1437C26.9559 29.1601 26.4419 29.0388 25.9856 28.7917C25.9526 25.0229 24.4042 22.7652 21.7 22.5112ZM40.3201 32.186C38.9391 33.2542 37.0109 33.2542 35.6299 32.186C33.9055 30.9022 31.543 30.9022 29.8185 32.186C29.1433 32.6992 28.3199 32.9802 27.4719 32.9871C26.6854 32.9989 25.922 32.7203 25.3283 32.2042C23.7234 30.8966 21.4206 30.8966 19.8158 32.2042C19.2224 32.7205 18.459 32.9992 17.6728 32.9871C16.8866 32.9989 16.1239 32.7203 15.5307 32.2042C14.8947 31.6779 14.1201 31.347 13.3 31.2514V28.9809C13.894 29.0381 14.4687 29.2211 14.9863 29.518C15.8048 29.9807 16.7328 30.2142 17.6728 30.1942C18.6792 30.2075 19.6572 29.8597 20.429 29.2134C21.6667 28.1691 23.477 28.1691 24.7146 29.2134C25.4868 29.8597 26.465 30.2075 27.4719 30.1942C28.5176 30.187 29.5348 29.8502 30.3776 29.2314C31.7596 28.1632 33.6884 28.1632 35.0701 29.2314C35.9127 29.8507 36.9294 30.1875 37.975 30.1942C38.9599 30.198 39.9317 29.9704 40.8125 29.53C41.4031 29.2332 42.0427 29.046 42.7 28.9776V31.2509C41.841 31.3583 41.0227 31.68 40.3201 32.186Z" fill="#085098" stroke="#085098" stroke-width="0.4"/>
<path d="M43.225 34.2052C42.1589 34.2175 41.1283 34.5908 40.3019 35.2642C39.6505 35.8156 38.8281 36.1242 37.975 36.1373C37.1273 36.1309 36.3044 35.8497 35.6299 35.3362C33.9055 34.0524 31.543 34.0524 29.8185 35.3362C29.1433 35.8494 28.3199 36.1304 27.4719 36.1373C26.6854 36.1491 25.922 35.8705 25.3283 35.3544C23.7234 34.0468 21.4206 34.0468 19.8158 35.3544C19.2224 35.8707 18.459 36.1494 17.6728 36.1373C16.8802 36.1429 16.1175 35.8366 15.5492 35.2842C14.7966 34.5828 13.8037 34.1968 12.775 34.2052C12.4851 34.2052 12.25 34.4403 12.25 34.7302V37.8802C12.25 38.1702 12.4851 38.4052 12.775 38.4052C13.5674 38.3998 14.33 38.7062 14.8981 39.2583C15.651 39.9597 16.6438 40.346 17.6728 40.3373C18.6792 40.3506 19.6572 40.0025 20.429 39.356C21.6669 38.3122 23.477 38.3122 24.7152 39.356C25.487 40.0025 26.4652 40.3506 27.4719 40.3373C28.5176 40.3301 29.5345 39.9936 30.3776 39.375C31.7591 38.3055 33.6889 38.3055 35.0701 39.375C35.9127 39.9941 36.9294 40.3309 37.975 40.3373C39.0412 40.325 40.0717 39.9518 40.8981 39.2783C41.5493 38.7267 42.3716 38.4183 43.225 38.4052C43.5149 38.4052 43.75 38.1702 43.75 37.8802V34.7302C43.75 34.4403 43.5149 34.2052 43.225 34.2052ZM42.7 37.3837C41.8225 37.5057 40.9943 37.8618 40.3019 38.4142C39.6505 38.9656 38.8281 39.2742 37.975 39.2873C37.1273 39.2809 36.3044 38.9997 35.6299 38.4862C33.9055 37.2024 31.543 37.2024 29.8185 38.4862C29.1433 38.9994 28.3199 39.2804 27.4719 39.2873C26.6854 39.2991 25.922 39.0205 25.3283 38.5044C23.7234 37.1968 21.4206 37.1968 19.8158 38.5044C19.2224 39.0207 18.459 39.2994 17.6728 39.2873C16.8802 39.293 16.1175 38.9866 15.5492 38.4342C14.925 37.8615 14.1398 37.4949 13.3 37.3842V35.2973C13.8986 35.4111 14.4525 35.692 14.8981 36.1073C15.6507 36.8092 16.6438 37.1955 17.6728 37.1873C18.6792 37.2006 19.6572 36.8525 20.429 36.206C21.6669 35.1622 23.477 35.1622 24.7152 36.206C25.487 36.8525 26.4652 37.2006 27.4719 37.1873C28.5176 37.1801 29.5345 36.8435 30.3776 36.225C31.7591 35.1555 33.6889 35.1555 35.0701 36.225C35.9127 36.8441 36.9294 37.1809 37.975 37.1873C39.0412 37.175 40.0717 36.8018 40.8981 36.1283C41.4201 35.7041 42.0391 35.4165 42.7 35.2916V37.3837Z" fill="#085098" stroke="#085098" stroke-width="0.4"/>
</g>
<defs>
<clipPath id="clip0">
<rect width="31.5" height="31.5" fill="white" transform="translate(12.25 12.25)"/>
</clipPath>
</defs>
</svg>
