<svg width="56" height="56" viewBox="0 0 56 56" fill="none" xmlns="http://www.w3.org/2000/svg">
<circle cx="28" cy="28" r="27.2" stroke="#F69234" stroke-width="1.6"/>
<path d="M22.9838 42C22.8402 42 22.6954 41.9675 22.5612 41.8992C22.1793 41.7052 21.9789 41.275 22.075 40.8567L24.6108 29.8665H20.184C19.8178 29.8665 19.4867 29.6528 19.3346 29.3213C19.1825 28.9893 19.2385 28.5988 19.4782 28.3228L31.6117 14.3226C31.8929 13.9979 32.3586 13.9073 32.7401 14.1013C33.1229 14.2952 33.3237 14.7259 33.2263 15.1438L30.6906 26.1331H35.1173C35.4835 26.1331 35.8146 26.3467 35.9667 26.6783C36.1188 27.0103 36.0628 27.4008 35.8232 27.6768L23.6896 41.677C23.5076 41.8881 23.2483 42 22.9838 42ZM22.228 27.9998H25.784C26.0686 27.9998 26.3373 28.1297 26.5137 28.3518C26.6911 28.5736 26.7564 28.865 26.6932 29.1431L24.7377 37.6181L33.0734 27.9998H29.5173C29.2328 27.9998 28.964 27.8699 28.7867 27.6477C28.6103 27.426 28.5441 27.1346 28.6073 26.8565L30.5637 18.3815L22.228 27.9998Z" fill="#D67316" stroke="#D67316" stroke-width="0.2"/>
</svg>
