<svg width="56" height="56" viewBox="0 0 56 56" fill="none" xmlns="http://www.w3.org/2000/svg">
<circle cx="28" cy="28" r="27.2" stroke="#F0C940" stroke-width="1.6"/>
<path d="M36.3005 28.4879C36.2318 28.2532 36.0553 28.0614 35.8208 27.9757C35.7734 27.9584 35.3898 27.8226 34.7938 27.7354C37.3399 25.0262 36.4993 21.861 36.3005 21.2428C36.2318 21.008 36.0553 20.8162 35.8208 20.7304C35.7115 20.6904 33.8058 20.0185 31.6345 20.7741C31.7571 20.2712 31.8288 19.7182 31.8288 19.1115C31.8288 15.2296 28.8892 13.5234 28.2993 13.2205C28.0847 13.103 27.8241 13.0923 27.5978 13.1975C27.4518 13.2653 24.0224 14.9065 24.0224 19.1115C24.0224 19.7195 24.0945 20.2736 24.2175 20.7773C22.0425 20.0166 20.1316 20.6903 20.0222 20.7304C19.7876 20.8162 19.6112 21.008 19.5424 21.2428C19.3437 21.861 18.503 25.0262 21.0492 27.7354C20.4532 27.8226 20.0695 27.9584 20.0222 27.9757C19.7876 28.0614 19.6111 28.2532 19.5423 28.488C19.3395 29.1191 18.4672 32.4045 21.2121 35.1494C22.8006 36.7379 24.5636 37.1168 25.8845 37.1168C26.3735 37.1168 26.8009 37.0648 27.1375 37.003V42.0966C27.1375 42.5264 27.486 42.875 27.9159 42.875C28.3458 42.875 28.6944 42.5264 28.6944 42.0966V37.001C29.0324 37.0636 29.4641 37.1168 29.9584 37.1168C31.2792 37.1168 33.0424 36.7377 34.6308 35.1493C37.3757 32.4043 36.5034 29.119 36.3005 28.4879ZM27.1375 34.5763C27.1202 34.9297 27.0706 35.2266 27.0232 35.4402C26.1911 35.625 24.1092 35.8447 22.3131 34.0485C20.5439 32.2794 20.7293 30.2321 20.9252 29.3387C21.4484 29.225 22.4693 29.0982 23.5996 29.465C23.674 29.4929 23.7482 29.5192 23.822 29.5437C24.4206 29.7707 25.0421 30.1413 25.6312 30.7303C26.7536 31.8527 27.0888 33.0865 27.1375 34.0569V34.5763ZM27.1375 27.3313C27.1202 27.6846 27.0706 27.9816 27.0232 28.195C26.5076 28.3097 25.5123 28.437 24.4025 28.0905C24.29 28.0472 24.1781 28.0077 24.067 27.972C23.4865 27.7427 22.8853 27.3755 22.313 26.8033C20.5439 25.0342 20.7293 22.9869 20.9252 22.0936C21.7565 21.9129 23.8442 21.6982 25.6312 23.4852C25.6425 23.4966 25.6528 23.508 25.6639 23.5193C25.7322 23.5959 25.8007 23.6691 25.8691 23.7395C26.8009 24.7913 27.0925 25.9143 27.1375 26.8119V27.3313ZM27.9269 23.4255C27.6829 23.269 27.3314 23.0111 26.9743 22.6383C26.9379 22.5984 26.9011 22.5585 26.8632 22.5187C26.2128 21.7962 25.5793 20.6879 25.5793 19.1115C25.5793 16.574 27.2031 15.2574 27.9217 14.7991C28.6912 15.2915 30.2719 16.6081 30.2719 19.1115C30.2719 20.5991 29.7136 21.6665 29.1071 22.388C28.981 22.5142 28.863 22.6417 28.7517 22.7699C28.4405 23.0725 28.1424 23.2882 27.9269 23.4255ZM28.6992 27.079C28.6981 26.1651 28.9345 24.9557 29.9024 23.8199C30.0171 23.706 30.1324 23.5834 30.2467 23.4516C32.0329 21.6945 34.0905 21.9092 34.9174 22.0921C35.1133 22.9846 35.3 25.0332 33.5298 26.8033C32.9586 27.3746 32.3586 27.7414 31.779 27.9709C31.6661 28.0072 31.5523 28.0473 31.4379 28.0914C30.3282 28.4373 29.3335 28.3095 28.82 28.1952C28.7624 27.9358 28.7014 27.5547 28.6991 27.0988C28.6991 27.0922 28.6992 27.0856 28.6992 27.079ZM33.5298 34.0485C31.7333 35.845 29.6514 35.625 28.8212 35.4408C28.6403 34.6127 28.4214 32.5205 30.2117 30.7303C30.7845 30.1575 31.3861 29.7903 31.9672 29.561C32.078 29.5253 32.1896 29.4861 32.3017 29.4428C33.4092 29.0972 34.4022 29.2233 34.9174 29.3372C35.1133 30.2297 35.3 32.2783 33.5298 34.0485Z" fill="#CCA20E" stroke="#CCA20E" stroke-width="0.2"/>
</svg>
