<svg width="56" height="56" viewBox="0 0 56 56" fill="none" xmlns="http://www.w3.org/2000/svg">
<circle cx="28" cy="28" r="27.2" stroke="#AEAEAE" stroke-width="1.6"/>
<path d="M40.8904 27.1749C40.8197 27.1379 40.7402 27.1209 40.6605 27.1259C40.5808 27.1308 40.5041 27.1574 40.4384 27.2029L35.4374 30.6648V27.5625C35.4374 27.4839 35.4162 27.4068 35.3761 27.3392C35.336 27.2716 35.2784 27.2161 35.2095 27.1785C35.1405 27.1408 35.0626 27.1225 34.9841 27.1253C34.9056 27.1281 34.8293 27.1521 34.7632 27.1946L29.3124 30.6985V27.5625C29.3124 27.4908 29.2948 27.4202 29.2611 27.3569C29.2275 27.2936 29.1788 27.2396 29.1193 27.1995C29.0599 27.1594 28.9915 27.1346 28.9202 27.1272C28.8488 27.1198 28.7768 27.13 28.7104 27.1569L27.8686 27.4986L27.1205 22.2508C27.1056 22.1465 27.0537 22.0511 26.9741 21.9821C26.8945 21.913 26.7927 21.875 26.6874 21.875H24.4999C24.3964 21.875 24.2962 21.9117 24.2173 21.9786C24.1383 22.0455 24.0856 22.1382 24.0685 22.2403L22.8527 29.5339L22.0805 29.8471L20.9955 22.2508C20.9806 22.1465 20.9287 22.0511 20.8491 21.9821C20.7695 21.913 20.6677 21.875 20.5624 21.875H18.3749C18.2714 21.875 18.1712 21.9117 18.0923 21.9786C18.0133 22.0455 17.9606 22.1382 17.9435 22.2403L14.881 40.6153C14.8705 40.678 14.8738 40.7422 14.8907 40.8035C14.9075 40.8648 14.9375 40.9216 14.9786 40.9701C15.0196 41.0186 15.0707 41.0576 15.1284 41.0844C15.186 41.1111 15.2488 41.125 15.3124 41.125H40.6874C40.8034 41.125 40.9147 41.0789 40.9967 40.9969C41.0788 40.9148 41.1249 40.8035 41.1249 40.6875V27.5625C41.1249 27.4826 41.103 27.4043 41.0617 27.336C41.0204 27.2676 40.9611 27.2119 40.8904 27.1749ZM26.3076 22.75L26.557 24.5H24.5786L24.8704 22.75H26.3076ZM24.4329 25.375H26.6821L27.0321 27.8377L23.8034 29.1476L24.4329 25.375ZM18.3079 25.375H20.558L22.308 37.625H16.2666L18.3079 25.375ZM20.1826 22.75L20.4329 24.5H18.4541L18.7454 22.75H20.1826ZM15.8291 40.25L16.1204 38.5H22.4327L22.6829 40.25H15.8291ZM40.2499 40.25H23.5667L22.2082 30.7396L28.4374 28.2122V31.5C28.4374 31.5786 28.4585 31.6557 28.4986 31.7233C28.5388 31.7909 28.5963 31.8464 28.6653 31.884C28.7343 31.9217 28.8121 31.94 28.8906 31.9372C28.9692 31.9344 29.0455 31.9104 29.1116 31.8679L34.5624 28.364V31.5C34.5624 31.5798 34.5843 31.6581 34.6256 31.7264C34.6669 31.7947 34.7261 31.8503 34.7968 31.8874C34.8675 31.9244 34.947 31.9414 35.0267 31.9365C35.1064 31.9316 35.1832 31.905 35.2488 31.8596L40.2499 28.3977V40.25Z" fill="#535353" stroke="#535353" stroke-width="0.4"/>
<path d="M35.875 37.625H38.5C38.616 37.625 38.7273 37.5789 38.8094 37.4969C38.8914 37.4148 38.9375 37.3035 38.9375 37.1875V34.5625C38.9375 34.4465 38.8914 34.3352 38.8094 34.2531C38.7273 34.1711 38.616 34.125 38.5 34.125H35.875C35.759 34.125 35.6477 34.1711 35.5656 34.2531C35.4836 34.3352 35.4375 34.4465 35.4375 34.5625V37.1875C35.4375 37.3035 35.4836 37.4148 35.5656 37.4969C35.6477 37.5789 35.759 37.625 35.875 37.625ZM36.3125 35H38.0625V36.75H36.3125V35Z" fill="#535353" stroke="#535353" stroke-width="0.4"/>
<path d="M33.25 34.125H30.625C30.509 34.125 30.3977 34.1711 30.3156 34.2531C30.2336 34.3352 30.1875 34.4465 30.1875 34.5625V37.1875C30.1875 37.3035 30.2336 37.4148 30.3156 37.4969C30.3977 37.5789 30.509 37.625 30.625 37.625H33.25C33.366 37.625 33.4773 37.5789 33.5594 37.4969C33.6414 37.4148 33.6875 37.3035 33.6875 37.1875V34.5625C33.6875 34.4465 33.6414 34.3352 33.5594 34.2531C33.4773 34.1711 33.366 34.125 33.25 34.125ZM32.8125 36.75H31.0625V35H32.8125V36.75Z" fill="#535353" stroke="#535353" stroke-width="0.4"/>
<path d="M28 34.125H25.375C25.259 34.125 25.1477 34.1711 25.0656 34.2531C24.9836 34.3352 24.9375 34.4465 24.9375 34.5625V37.1875C24.9375 37.3035 24.9836 37.4148 25.0656 37.4969C25.1477 37.5789 25.259 37.625 25.375 37.625H28C28.116 37.625 28.2273 37.5789 28.3094 37.4969C28.3914 37.4148 28.4375 37.3035 28.4375 37.1875V34.5625C28.4375 34.4465 28.3914 34.3352 28.3094 34.2531C28.2273 34.1711 28.116 34.125 28 34.125ZM27.5625 36.75H25.8125V35H27.5625V36.75Z" fill="#535353" stroke="#535353" stroke-width="0.4"/>
<path d="M25.8125 21C25.6965 21 25.5852 20.9539 25.5031 20.8719C25.4211 20.7898 25.375 20.6785 25.375 20.5625C25.3757 19.9826 25.6064 19.4266 26.0165 19.0165C26.4266 18.6064 26.9826 18.3757 27.5625 18.375H30.625C30.9731 18.375 31.3069 18.2367 31.5531 17.9906C31.7992 17.7444 31.9375 17.4106 31.9375 17.0625C31.9382 16.4826 32.1689 15.9266 32.579 15.5165C32.9891 15.1064 33.5451 14.8757 34.125 14.875H37.625C37.741 14.875 37.8523 14.9211 37.9344 15.0031C38.0164 15.0852 38.0625 15.1965 38.0625 15.3125C38.0625 15.4285 38.0164 15.5398 37.9344 15.6219C37.8523 15.7039 37.741 15.75 37.625 15.75H34.125C33.7769 15.75 33.4431 15.8883 33.1969 16.1344C32.9508 16.3806 32.8125 16.7144 32.8125 17.0625C32.8118 17.6424 32.5811 18.1984 32.171 18.6085C31.7609 19.0186 31.2049 19.2493 30.625 19.25H27.5625C27.2144 19.25 26.8806 19.3883 26.6344 19.6344C26.3883 19.8806 26.25 20.2144 26.25 20.5625C26.25 20.6785 26.2039 20.7898 26.1219 20.8719C26.0398 20.9539 25.9285 21 25.8125 21Z" fill="#535353" stroke="#535353" stroke-width="0.4"/>
<path d="M19.25 21C19.134 21 19.0227 20.9539 18.9406 20.8719C18.8586 20.7898 18.8125 20.6785 18.8125 20.5625C18.8132 19.9826 19.0439 19.4266 19.454 19.0165C19.8641 18.6064 20.4201 18.3757 21 18.375H22.3125C22.6606 18.375 22.9944 18.2367 23.2406 17.9906C23.4867 17.7444 23.625 17.4106 23.625 17.0625C23.6257 16.4826 23.8564 15.9266 24.2665 15.5165C24.6766 15.1064 25.2326 14.8757 25.8125 14.875H29.3125C29.4285 14.875 29.5398 14.9211 29.6219 15.0031C29.7039 15.0852 29.75 15.1965 29.75 15.3125C29.75 15.4285 29.7039 15.5398 29.6219 15.6219C29.5398 15.7039 29.4285 15.75 29.3125 15.75H25.8125C25.4644 15.75 25.1306 15.8883 24.8844 16.1344C24.6383 16.3806 24.5 16.7144 24.5 17.0625C24.4993 17.6424 24.2686 18.1984 23.8585 18.6085C23.4484 19.0186 22.8924 19.2493 22.3125 19.25H21C20.6519 19.25 20.3181 19.3883 20.0719 19.6344C19.8258 19.8806 19.6875 20.2144 19.6875 20.5625C19.6875 20.6785 19.6414 20.7898 19.5594 20.8719C19.4773 20.9539 19.366 21 19.25 21Z" fill="#535353" stroke="#535353" stroke-width="0.4"/>
</svg>
