<svg width="16" height="16" viewBox="0 0 16 16" fill="none" xmlns="http://www.w3.org/2000/svg">
<path fill-rule="evenodd" clip-rule="evenodd" d="M8 15C11.866 15 15 11.866 15 8C15 4.13401 11.866 1 8 1C4.13401 1 1 4.13401 1 8C1 11.866 4.13401 15 8 15ZM7.38219 9.57542H8.41781L8.76301 4H7.02466L7.38219 9.57542ZM7.2589 10.6034C7.0863 10.7672 7 10.9609 7 11.1844C7 11.4078 7.0863 11.6015 7.2589 11.7654C7.43151 11.9218 7.6411 12 7.88767 12C8.14247 12 8.35616 11.9218 8.52877 11.7654C8.70959 11.6015 8.8 11.4078 8.8 11.1844C8.8 10.9609 8.70959 10.7672 8.52877 10.6034C8.35616 10.4395 8.14247 10.3575 7.88767 10.3575C7.6411 10.3575 7.43151 10.4395 7.2589 10.6034Z" fill="#C86100"/>
</svg>
