<svg width="200" height="200" viewBox="0 0 200 200" fill="none" xmlns="http://www.w3.org/2000/svg">
<path d="M100 200C155.228 200 200 155.228 200 100C200 44.7715 155.228 0 100 0C44.7715 0 0 44.7715 0 100C0 155.228 44.7715 200 100 200Z" fill="#FFD05B"/>
<path d="M189.291 55.1181C187.402 55.2755 185.512 55.433 183.622 55.433C172.126 55.433 164.095 52.2834 162.677 51.6535C154.961 54.4881 147.874 55.433 141.575 55.433C130.079 55.433 122.047 52.2834 120.63 51.6535C113.071 54.4881 105.827 55.433 99.5277 55.433C88.0316 55.433 80.0001 52.2834 78.5828 51.6535C70.8663 54.4881 63.7796 55.433 57.4804 55.433C45.9844 55.433 37.9529 52.2834 36.5356 51.6535C28.819 54.4881 21.7324 55.433 15.4332 55.433C13.5434 55.433 11.6537 55.2755 10.0789 55.2755C10.2363 54.9606 10.3938 54.4881 10.7088 54.1732C17.7954 54.8031 26.7718 54.1732 36.3781 50.7086H36.5356H36.693C36.8505 50.7086 55.5907 59.0551 78.1104 50.7086H78.2678H78.4253C78.5828 50.7086 97.323 59.0551 120 50.7086H120.158H120.315C120.473 50.7086 139.213 59.0551 161.732 50.7086H161.89H162.047C162.205 50.7086 172.756 55.433 187.717 54.1732C188.977 54.3307 189.134 54.6456 189.291 55.1181Z" fill="white"/>
<path d="M191.969 60.7874C189.134 61.1024 186.299 61.2598 183.78 61.2598C172.283 61.2598 164.252 58.1102 162.835 57.6378C155.118 60.4724 148.032 61.2598 141.732 61.2598C130.236 61.2598 122.205 58.1102 120.787 57.6378C113.228 60.4724 105.984 61.2598 99.6851 61.2598C88.189 61.2598 80.1575 58.1102 78.7402 57.6378C71.0236 60.4724 63.937 61.2598 57.6378 61.2598C46.1418 61.2598 38.1103 58.1102 36.6929 57.6378C28.9764 60.4724 21.8898 61.2598 15.5906 61.2598C12.7559 61.2598 9.92129 61.1024 7.55908 60.7874C7.71656 60.4724 7.87404 60 8.03152 59.685C15.4331 60.6299 25.5118 60.4724 36.378 56.378H36.5355H36.6929C36.8504 56.378 45.1969 60 57.3229 60C63.4646 60 70.5512 59.0551 78.2677 56.2205H78.4252H78.5827C78.7402 56.2205 87.0866 59.8425 99.2126 59.8425C105.354 59.8425 112.441 58.8976 120.158 56.063H120.315H120.472C120.787 56.2205 139.37 64.252 161.89 56.063H162.047H162.205C162.362 56.2205 174.331 61.2598 190.551 59.2126C191.654 60 191.811 60.315 191.969 60.7874Z" fill="white"/>
<path d="M194.173 66.2992C190.551 66.9291 186.929 67.2441 183.78 67.2441C172.284 67.2441 164.252 64.0945 162.835 63.4645C155.118 66.2992 148.032 67.2441 141.732 67.2441C130.236 67.2441 122.205 64.0945 120.788 63.4645C113.229 66.2992 105.984 67.2441 99.6852 67.2441C88.1891 67.2441 80.1576 64.0945 78.7403 63.4645C71.0238 66.2992 63.9372 67.2441 57.638 67.2441C46.1419 67.2441 38.1104 64.0945 36.6931 63.4645C28.9765 66.2992 21.8899 67.2441 15.5907 67.2441C11.8112 67.2441 8.34662 66.9291 5.35449 66.4567C5.51197 66.1417 5.66945 65.6693 5.82693 65.3543C13.386 66.6142 24.4096 66.9291 36.5356 62.5197H36.6931H36.8506C37.008 62.5197 55.7482 70.7086 78.2679 62.5197H78.4254H78.5828C78.7403 62.5197 97.4805 70.7086 120.158 62.5197H120.315H120.473C120.63 62.5197 128.819 66.1417 141.103 66.1417C147.244 66.1417 154.331 65.1968 162.047 62.3622H162.205H162.362C162.52 62.3622 175.591 68.189 193.071 65.1968C193.858 65.5118 194.016 65.9842 194.173 66.2992Z" fill="white"/>
<path d="M196.063 71.9685C191.654 72.9134 187.559 73.2283 183.78 73.2283C172.283 73.2283 164.252 70.0787 162.835 69.4488C155.118 72.2834 148.032 73.2283 141.732 73.2283C130.236 73.2283 122.205 70.0787 120.787 69.4488C113.228 72.2834 105.984 73.2283 99.6851 73.2283C88.189 73.2283 80.1575 70.0787 78.7402 69.4488C71.0237 72.2834 63.937 73.2283 57.6378 73.2283C46.1418 73.2283 38.1103 70.0787 36.6929 69.4488C28.9764 72.2834 21.8898 73.2283 15.5906 73.2283C11.0236 73.2283 6.92916 72.7559 3.62207 72.126C3.77955 71.811 3.77955 71.3386 3.93703 71.0236C11.6536 72.4409 23.3071 73.2283 36.5355 68.5039H36.6929H36.8504C37.0079 68.5039 55.7481 76.6929 78.2677 68.5039H78.4252H78.5827C78.7402 68.5039 97.4803 76.6929 120.158 68.5039H120.315H120.472C120.63 68.5039 139.37 76.6929 161.89 68.5039H162.047H162.205C162.362 68.5039 176.378 74.6456 194.803 71.0236C195.748 71.1811 195.906 71.496 196.063 71.9685Z" fill="white"/>
<path d="M2.67717 77.0079C0.944882 84.4095 0 92.126 0 100C0 155.276 44.7244 200 100 200C155.276 200 200 155.276 200 100C200 92.126 199.055 84.4095 197.323 77.0079H2.67717Z" fill="#F9B54C"/>
<path d="M14.8031 152.441H185.039C185.512 151.654 186.142 150.709 186.614 149.921C195.118 135.276 200 118.11 200 100C200 92.126 199.055 84.4095 197.323 77.0079H2.67717C0.944882 84.4095 0 92.126 0 100C0 118.898 5.19685 136.535 14.3307 151.654C14.4882 151.969 14.6457 152.126 14.8031 152.441Z" fill="#F9B54C"/>
<path d="M168.031 167.559H31.9685L37.4803 77.3229H162.52L168.031 167.559Z" fill="#E6E9EE"/>
<path d="M155.905 156.378H136.85L138.583 97.3228C138.74 93.5433 142.205 90.3937 146.299 90.3937C150.551 90.3937 154.016 93.3858 154.016 97.3228L155.905 156.378Z" fill="#54C0EB"/>
<path d="M125.04 156.378H105.827L107.559 97.3228C107.717 93.5433 111.181 90.3937 115.276 90.3937C119.528 90.3937 122.992 93.3858 122.992 97.3228L125.04 156.378Z" fill="#54C0EB"/>
<path d="M94.0158 156.378H74.9607L76.693 97.3228C76.8505 93.5433 80.315 90.3937 84.4095 90.3937C88.6615 90.3937 92.1261 93.3858 92.1261 97.3228L94.0158 156.378Z" fill="#54C0EB"/>
<path d="M63.1496 156.378H44.0945L45.8268 97.3228C45.9842 93.5433 49.4488 90.3937 53.5433 90.3937C57.7953 90.3937 61.2598 93.3858 61.2598 97.3228L63.1496 156.378Z" fill="#54C0EB"/>
<path d="M154.016 96.8504C153.701 93.2283 150.394 90.3937 146.299 90.3937C142.205 90.3937 138.897 93.2283 138.583 96.8504H154.016Z" fill="#324A5E"/>
<path d="M123.149 96.8504C122.834 93.2283 119.527 90.3937 115.433 90.3937C111.338 90.3937 108.031 93.2283 107.716 96.8504H123.149Z" fill="#324A5E"/>
<path d="M92.2834 96.8504C91.9685 93.2283 88.6614 90.3937 84.5669 90.3937C80.4724 90.3937 77.1653 93.2283 76.8503 96.8504H92.2834Z" fill="#324A5E"/>
<path d="M61.4172 96.8504C61.1022 93.2283 57.7952 90.3937 53.7007 90.3937C49.6062 90.3937 46.2991 93.2283 45.9841 96.8504H61.4172Z" fill="#324A5E"/>
<path d="M133.228 77.3229H128.661V167.559H133.228V77.3229Z" fill="#ACB3BA"/>
<path d="M102.362 77.3229H97.7952V167.559H102.362V77.3229Z" fill="#ACB3BA"/>
<path d="M71.3384 77.3229H66.7715V167.559H71.3384V77.3229Z" fill="#ACB3BA"/>
<path d="M39.3701 46.4567C39.3701 45.1968 38.4253 44.252 37.1654 44.252C35.9056 44.252 34.9607 45.1968 34.9607 46.4567C34.9607 47.4016 35.5906 48.189 36.378 48.5039V77.3228H37.7953V48.5039C38.7402 48.189 39.3701 47.4016 39.3701 46.4567Z" fill="white"/>
<path d="M81.26 46.4567C81.26 45.1968 80.3152 44.252 79.0553 44.252C77.7955 44.252 76.8506 45.1968 76.8506 46.4567C76.8506 47.4016 77.4805 48.189 78.2679 48.5039V77.3228H79.6852V48.5039C80.6301 48.189 81.26 47.4016 81.26 46.4567Z" fill="white"/>
<path d="M123.15 46.4567C123.15 45.1968 122.205 44.252 120.945 44.252C119.685 44.252 118.74 45.1968 118.74 46.4567C118.74 47.4016 119.37 48.189 120.158 48.5039V77.3228H121.575V48.5039C122.52 48.189 123.15 47.4016 123.15 46.4567Z" fill="white"/>
<path d="M165.04 46.4567C165.04 45.1968 164.095 44.252 162.835 44.252C161.575 44.252 160.63 45.1968 160.63 46.4567C160.63 47.4016 161.26 48.189 162.047 48.5039V77.3228H163.465V48.5039C164.41 48.189 165.04 47.4016 165.04 46.4567Z" fill="white"/>
<path d="M186.614 149.921C183.465 155.433 179.843 160.472 175.748 165.197C171.811 169.921 167.244 174.173 162.52 177.953C161.89 178.425 161.102 179.055 160.473 179.528C159.843 180 159.055 180.63 158.425 181.102C157.008 182.205 155.591 183.15 154.016 184.094C153.228 184.567 152.441 185.039 151.811 185.512C151.024 185.984 150.236 186.457 149.606 186.929C148.819 187.402 148.032 187.717 147.244 188.189C146.457 188.661 145.669 188.976 144.882 189.449C144.095 189.921 143.307 190.236 142.52 190.551C141.732 190.866 140.945 191.339 140.158 191.654C140.158 191.654 140.158 191.654 140 191.654C139.213 191.969 138.425 192.283 137.638 192.598C136.851 192.913 136.063 193.228 135.276 193.543C135.118 193.701 134.803 193.701 134.488 193.858C133.071 194.331 131.496 194.961 130.079 195.433C129.291 195.748 128.347 195.906 127.559 196.22C124.725 197.008 121.89 197.638 119.055 198.268C118.425 198.425 117.795 198.425 117.008 198.583C116.851 198.583 116.693 198.583 116.693 198.583C115.906 198.74 115.276 198.898 114.488 198.898C114.331 198.898 114.173 198.898 114.016 198.898C113.228 199.055 112.284 199.055 111.496 199.213H111.339C110.866 199.213 110.394 199.37 109.764 199.37C109.134 199.37 108.504 199.528 107.874 199.528C107.244 199.528 106.457 199.685 105.669 199.685C104.725 199.685 103.78 199.843 102.992 199.843C102.047 199.843 101.102 199.843 100.158 199.843C99.3702 199.843 98.4253 199.843 97.6379 199.843C97.1655 199.843 96.8505 199.843 96.3781 199.843C95.7481 199.843 95.2757 199.843 94.6458 199.843C93.8584 199.843 93.2284 199.843 92.441 199.685C91.8111 199.685 91.3387 199.528 90.7088 199.528C90.0788 199.528 89.2914 199.37 88.6615 199.37C87.8741 199.37 87.0867 199.213 86.4568 199.055C85.8269 199.055 85.0395 198.898 84.4095 198.74C83.9371 198.74 83.4647 198.583 83.1497 198.583C82.6773 198.583 82.2048 198.425 81.5749 198.268C80.7875 198.11 80.1576 197.953 79.3702 197.795C78.7403 197.638 78.1103 197.48 77.6379 197.48C76.8505 197.323 76.0631 197.165 75.2757 196.85C72.1261 196.063 68.9765 195.118 65.8269 193.858C65.3544 193.701 64.882 193.543 64.4095 193.386C63.9371 193.228 63.4647 193.071 62.8347 192.756C62.0473 192.441 61.2599 192.126 60.4725 191.811C59.6851 191.496 58.8977 191.181 58.1103 190.709C57.3229 190.394 56.5355 189.921 55.7481 189.606C54.9607 189.134 54.0158 188.819 53.2284 188.346C52.441 188.032 51.8111 187.559 51.0237 187.087C50.2363 186.614 49.4489 186.299 48.819 185.827C48.1891 185.512 47.5591 185.039 46.9292 184.724C45.9843 184.095 45.1969 183.622 44.2521 182.992C42.9922 182.047 41.5749 181.102 40.3151 180.157C38.7403 178.898 37.1654 177.638 35.5906 176.378C35.1182 175.906 34.4883 175.433 34.0158 174.961C32.756 173.858 31.4962 172.598 30.2363 171.339C29.6064 170.709 28.9765 170.079 28.3465 169.449C27.7166 168.819 27.0867 168.189 26.6143 167.559C25.9843 166.929 25.5119 166.299 24.882 165.669C20.945 161.26 17.4804 156.535 14.4883 151.496C16.2206 148.819 19.2127 146.929 22.5198 146.929C22.9922 146.929 23.3072 146.929 23.7796 146.929C25.3544 143.937 28.504 142.047 32.1261 142.047C35.9056 142.047 39.0552 144.094 40.63 147.244C41.5749 146.929 42.3623 146.772 43.3072 146.772C44.567 146.772 45.8269 147.087 46.9292 147.559C48.504 144.252 51.6536 142.047 55.5906 142.047C60.1576 142.047 63.9371 145.354 64.882 149.606C65.5119 149.449 66.1418 149.449 66.9292 149.449C68.0316 149.449 69.134 149.606 70.0788 149.921C71.4962 146.457 74.9607 143.937 78.8977 143.937C82.8347 143.937 86.2993 146.299 87.7166 149.764C88.6615 149.449 89.6064 149.291 90.7088 149.291C92.1261 149.291 93.5434 149.606 94.8032 150.236C96.0631 146.457 99.6851 143.937 103.78 143.937C107.874 143.937 111.339 146.457 112.599 150.079C113.701 149.606 114.961 149.291 116.378 149.291C116.693 149.291 117.008 149.291 117.323 149.291C118.898 146.142 122.047 143.78 125.827 143.78C128.662 143.78 131.181 145.039 132.913 146.929C133.701 146.772 134.488 146.614 135.276 146.614C138.268 146.614 140.945 148.032 142.677 150.079C144.41 148.032 147.087 146.614 150.079 146.614C153.228 146.614 155.906 148.189 157.638 150.394C159.37 148.031 162.205 146.457 165.354 146.457C168.347 146.457 170.866 147.717 172.599 149.921C174.331 147.874 176.85 146.614 179.685 146.614C182.52 147.087 184.882 148.189 186.614 149.921Z" fill="#84DBFF"/>
</svg>
