<svg width="236" height="239" viewBox="0 0 236 239" fill="none" xmlns="http://www.w3.org/2000/svg">
<path fill-rule="evenodd" clip-rule="evenodd" d="M96.4738 93.797C96.4738 93.797 116.781 100.989 127.073 113.188C137.365 125.386 110.502 157.372 105.29 164.682C100.079 171.993 89.3234 90.6035 89.3234 90.6035L96.4738 93.797Z" fill="#308383"/>
<path fill-rule="evenodd" clip-rule="evenodd" d="M211 200.741C211 220.336 195.114 236.222 175.518 236.222C155.922 236.222 140.036 220.336 140.036 200.741C140.036 181.145 155.922 165.259 175.518 165.259C195.114 165.259 211 181.145 211 200.741Z" stroke="#FA9400" stroke-width="4"/>
<path fill-rule="evenodd" clip-rule="evenodd" d="M207.898 200.74C207.898 218.627 193.397 233.128 175.51 233.128C157.623 233.128 143.123 218.627 143.123 200.74C143.123 182.853 157.623 168.353 175.51 168.353C193.397 168.353 207.898 182.853 207.898 200.74Z" stroke="#231F20" stroke-width="2"/>
<path fill-rule="evenodd" clip-rule="evenodd" d="M182.728 200.741C182.728 204.725 179.499 207.955 175.514 207.955C171.53 207.955 168.301 204.725 168.301 200.741C168.301 196.756 171.53 193.526 175.514 193.526C179.499 193.526 182.728 196.756 182.728 200.741Z" fill="#1C1C1C"/>
<path fill-rule="evenodd" clip-rule="evenodd" d="M72.9636 200.741C72.9636 220.336 57.0777 236.222 37.4818 236.222C17.8859 236.222 2 220.336 2 200.741C2 181.145 17.8859 165.259 37.4818 165.259C57.0777 165.259 72.9636 181.145 72.9636 200.741Z" stroke="#FA9400" stroke-width="4"/>
<path fill-rule="evenodd" clip-rule="evenodd" d="M69.8728 200.74C69.8728 218.627 55.3724 233.128 37.4853 233.128C19.5982 233.128 5.09784 218.627 5.09784 200.74C5.09784 182.853 19.5982 168.353 37.4853 168.353C55.3724 168.353 69.8728 182.853 69.8728 200.74Z" stroke="#231F20" stroke-width="2"/>
<path fill-rule="evenodd" clip-rule="evenodd" d="M44.6923 200.741C44.6923 204.725 41.4626 207.955 37.4783 207.955C33.4939 207.955 30.2648 204.725 30.2648 200.741C30.2648 196.756 33.4939 193.526 37.4783 193.526C41.4626 193.526 44.6923 196.756 44.6923 200.741Z" fill="#1C1C1C"/>
<path d="M37.4805 195.825L96.8763 191.24" stroke="#231F20"/>
<path fill-rule="evenodd" clip-rule="evenodd" d="M109.284 200.741C109.284 206.175 104.879 210.58 99.4447 210.58C94.0107 210.58 89.605 206.175 89.605 200.741C89.605 195.306 94.0107 190.901 99.4447 190.901C104.879 190.901 109.284 195.306 109.284 200.741Z" fill="#E1DCD6"/>
<path fill-rule="evenodd" clip-rule="evenodd" d="M90.2863 123.06C90.2863 124.926 84.8534 126.439 78.1518 126.439C71.4502 126.439 66.0174 124.926 66.0174 123.06C66.0174 121.194 71.4502 119.681 78.1518 119.681C84.8534 119.681 90.2863 121.194 90.2863 123.06Z" fill="#6B3E00"/>
<path d="M175.514 200.741L157.967 110.484" stroke="#1C1C1C" stroke-width="2"/>
<path d="M81.0994 135.767H162.783" stroke="#1C1C1C" stroke-width="2"/>
<path d="M95.4335 186.189C95.4335 186.189 118.923 145.905 164.596 145.905" stroke="#1C1C1C" stroke-width="2"/>
<path d="M99.5346 200.741H37.4805C37.4805 200.741 40.1948 146.743 79.4462 129.966" stroke="#1C1C1C" stroke-width="2"/>
<path d="M78.1442 125.4L100.493 203.967" stroke="#1C1C1C" stroke-width="2" stroke-linecap="round" stroke-linejoin="round"/>
<path d="M154.873 109.514H174.687C181.83 109.514 184.018 117.232 179.987 121.725C175.954 126.218 168.432 125.066 168.432 125.066" stroke="#1C1C1C" stroke-width="2"/>
<path d="M36.7498 205.963L99.2732 210.575" stroke="#231F20" stroke-linecap="round"/>
<path fill-rule="evenodd" clip-rule="evenodd" d="M82.5017 191.094V200.724H91.791V192.813L104.696 200.724H127.809C127.809 200.724 130.312 194.368 120.104 191.094C109.896 187.82 107.041 184.16 105.291 181.078L82.5017 191.094Z" fill="#1C1C1C"/>
<path fill-rule="evenodd" clip-rule="evenodd" d="M70.5845 82.3918C70.5845 82.3918 58.6911 87.3169 62.4758 109.697C66.2605 132.078 78.1434 192.265 78.1434 192.265L114.061 185.065L96.8721 109.697L91.2251 86.0493L70.5845 82.3918Z" fill="#49A7A8"/>
<path fill-rule="evenodd" clip-rule="evenodd" d="M100.659 59.3821C100.659 59.3821 96.642 56.9175 91.4602 59.0378C86.2777 61.158 83.3947 64.4695 81.4174 68.5565C79.4407 72.6435 72.0271 79.2803 70.5938 82.3921L96.2096 96.0965L102.007 94.0334L115.185 81.641L121.819 84.8316C121.819 84.8316 126.154 70.2927 110.308 63.6466C106.891 62.2132 100.659 59.3821 100.659 59.3821Z" fill="#E1DCD6"/>
<path fill-rule="evenodd" clip-rule="evenodd" d="M113.318 46.8218C113.318 46.8218 120.975 43.5751 125.045 39.5704C125.045 39.5704 125.629 41.417 127.403 43.5594C127.403 43.5594 128.609 39.1485 123.331 35.226C118.054 31.3036 114.314 32.2122 111.981 33.2511C109.648 34.2893 106.623 37.0025 106.623 37.0025C106.623 37.0025 107.253 31.3351 100.952 28.553C94.651 25.7709 89.9716 25.6285 87.7177 26.4018C85.4638 27.1751 81.8688 29.8609 81.6902 34.3366C81.5122 38.8123 84.153 41.9124 85.9511 43.3154C87.7487 44.719 96.1211 47.9861 100.134 46.4844C104.147 44.9828 105.287 42.7213 105.287 42.7213L105.37 44.1459L113.318 46.8218Z" fill="#1C1C1C"/>
<path fill-rule="evenodd" clip-rule="evenodd" d="M127.407 43.5592C127.407 43.5592 127.634 44.9628 127.144 46.9663C127.144 46.9663 130.115 52.7971 126.942 57.5874C124.518 61.2461 119.447 63.8029 112.923 61.8577L109.853 66.746C109.853 66.746 105.696 70.236 101.813 67.0361C97.9304 63.8361 100.656 59.382 100.656 59.382L105.783 51.557C105.783 51.557 102.829 48.3144 104.751 45.0188C106.674 41.7225 110.067 42.626 110.721 42.9295C112.259 43.6426 113.566 45.282 113.322 46.8216C113.322 46.8216 115.353 46.1376 120.202 42.8542L125.05 39.5702L127.407 43.5592Z" fill="#FA9400"/>
<path d="M108.508 45.2026L112.2 47.3842L107.579 48.3191" stroke="#1C1C1C" stroke-linecap="round" stroke-linejoin="round"/>
<path d="M112.924 61.8578C112.924 61.8578 109.458 60.8516 108.312 58.453" stroke="#1C1C1C" stroke-linecap="round" stroke-linejoin="round"/>
<path d="M106.808 37.6321C106.808 37.6321 106.356 40.549 105.29 42.7212" stroke="#49A7A8" stroke-linecap="round"/>
<path fill-rule="evenodd" clip-rule="evenodd" d="M109.266 73.7886L95.502 88.8452C95.502 88.8452 104.956 99.1301 108.993 101.322C113.269 103.641 127.856 106.1 127.856 106.1C127.856 106.1 152.716 108.722 156.743 111.755C160.77 114.787 163.882 119.942 165.628 119.757C167.374 119.573 169.26 118.445 166.602 114.13C163.943 109.815 163.346 108.511 163.346 108.511C163.346 108.511 171.127 114.071 174.271 114.867C177.415 115.664 181.862 114.454 175.737 109.951C169.613 105.448 167.567 104.275 167.567 104.275C167.567 104.275 173.448 107.234 177.244 108.678C181.039 110.123 183.906 107.597 179.167 103.647C174.427 99.698 168.382 96.3457 157.929 94.0743C147.476 91.8029 125.089 86.6788 120.181 84.1185C115.273 81.5576 109.266 73.7886 109.266 73.7886Z" fill="#FA9400"/>
<path d="M95.5023 88.845L86.9658 80.8186" stroke="#1C1C1C" stroke-linecap="round" stroke-linejoin="round"/>
<path d="M108.334 159.913L96.4781 108.006" stroke="#1C1C1C" stroke-linecap="round" stroke-linejoin="round"/>
<path d="M100.503 125.624C100.503 125.624 100.606 122.188 102.469 121.031" stroke="#1C1C1C" stroke-linecap="round" stroke-linejoin="round"/>
<path fill-rule="evenodd" clip-rule="evenodd" d="M195.987 78.5894C217.689 78.5894 235.282 60.9966 235.282 39.2947C235.282 17.5928 217.689 0 195.987 0C174.286 0 156.693 17.5928 156.693 39.2947C156.693 60.9966 174.286 78.5894 195.987 78.5894Z" fill="#E1DCD6"/>
<mask id="mask0" mask-type="alpha" maskUnits="userSpaceOnUse" x="156" y="0" width="80" height="79">
<path fill-rule="evenodd" clip-rule="evenodd" d="M195.987 78.5894C217.689 78.5894 235.282 60.9966 235.282 39.2947C235.282 17.5928 217.689 0 195.987 0C174.286 0 156.693 17.5928 156.693 39.2947C156.693 60.9966 174.286 78.5894 195.987 78.5894Z" fill="white"/>
</mask>
<g mask="url(#mask0)">
<path d="M193.28 42.9803C192.67 44.2433 189.936 44.7471 190.909 45.7734C191.554 46.5155 192.983 46.0067 193.955 45.1611C194.928 44.3155 197.095 41.9433 199.167 42.8295C201.238 43.7156 200.679 45.5046 202.634 46.8178C204.588 48.1311 205.998 46.0102 208.428 46.7475C210.858 47.4848 209.573 48.439 211.653 50.4576C213.733 52.4762 215.498 51.5123 217.283 51.5076C219.068 51.5029 220.58 54.178 222.242 54.687C223.905 55.196 224.835 53.0849 226.269 52.4895C227.703 51.8941 228.802 53.6259 230.993 55.304C233.183 56.9822 236.197 55.5839 236.898 54.8933C237.598 54.2026 238.563 52.2245 242.206 54.9193C245.85 57.614 249.247 57.5924 250.516 56.2452C251.784 54.8981 253.691 52.5076 251.887 49.0284C250.082 45.549 246.718 46.3566 244.517 44.1989C242.316 42.0411 243.416 41.248 240.817 38.5399C238.219 35.8317 234.293 37.2091 232.476 38.3C230.66 39.3908 227.155 40.9721 224.834 38.0223C222.514 35.0726 219.249 33.1881 216.584 33.9579C213.919 34.7277 212.158 38.7827 210.238 39.4745C208.318 40.1663 207.747 37.7316 204.978 36.2304C202.209 34.7291 198.732 34.6581 196.585 36.1174C194.438 37.5767 193.89 41.7173 193.28 42.9803Z" fill="#F6EDE4"/>
<path d="M210.021 42.8836C209.567 43.8215 207.537 44.1981 208.259 44.9588C208.737 45.5087 209.798 45.1297 210.521 44.5012C211.244 43.8727 212.855 42.1102 214.392 42.7657C215.929 43.4211 215.512 44.7493 216.961 45.7218C218.411 46.6943 219.46 45.119 221.263 45.6637C223.066 46.2083 222.111 46.9177 223.653 48.4135C225.195 49.9093 226.506 49.1922 227.831 49.1869C229.157 49.1816 230.276 51.1651 231.51 51.5411C232.743 51.9172 233.436 50.3496 234.501 49.9063C235.567 49.463 236.38 50.747 238.005 51.9901C239.63 53.2331 241.868 52.1924 242.389 51.6792C242.91 51.166 243.628 49.6971 246.33 51.6931C249.032 53.689 251.554 53.6695 252.497 52.6685C253.44 51.6676 254.858 49.8917 253.522 47.3117C252.186 44.7317 249.688 45.3344 248.056 43.7355C246.425 42.1365 247.242 41.5469 245.316 39.5399C243.39 37.5329 240.474 38.5591 239.124 39.3704C237.774 40.1817 235.171 41.3587 233.451 39.1722C231.732 36.9857 229.31 35.5906 227.331 36.1646C225.352 36.7385 224.04 39.7494 222.614 40.2647C221.188 40.78 220.767 38.974 218.713 37.8628C216.659 36.7516 214.077 36.7024 212.482 37.7875C210.887 38.8727 210.475 41.9458 210.021 42.8836Z" fill="#C7C4BF"/>
</g>
<mask id="mask1" mask-type="alpha" maskUnits="userSpaceOnUse" x="166" y="25" width="41" height="26">
<path fill-rule="evenodd" clip-rule="evenodd" d="M166.298 25.6692H206.692V50.3271H166.298V25.6692Z" fill="white"/>
</mask>
<g mask="url(#mask1)">
<path fill-rule="evenodd" clip-rule="evenodd" d="M166.397 50.3274C166.397 50.3274 205.797 50.2857 206.096 50.2857C206.395 50.2857 207.579 30.4032 205.438 27.2746C204.421 25.7884 195.923 25.6692 188.802 25.6692C181.681 25.6692 176.075 26.3433 173.702 28.0875C172.088 29.2733 171.687 39.1665 170.61 40.5342C169.533 41.9019 167.798 41.6638 167.199 43.0315C166.6 44.3992 166.073 49.0611 166.397 50.3274Z" fill="#49A7A8"/>
</g>
<mask id="mask2" mask-type="alpha" maskUnits="userSpaceOnUse" x="170" y="47" width="8" height="8">
<path fill-rule="evenodd" clip-rule="evenodd" d="M170.083 47.2161H177.912V54.7747H170.083V47.2161Z" fill="white"/>
</mask>
<g mask="url(#mask2)">
<path fill-rule="evenodd" clip-rule="evenodd" d="M171.22 48.2832C168.688 50.9401 170.715 55.0341 174.08 54.7618C176.61 54.5571 178.542 52.1257 177.72 49.6574C176.889 47.1662 173.052 46.3606 171.22 48.2832Z" fill="#2B292D"/>
</g>
<path fill-rule="evenodd" clip-rule="evenodd" d="M172.172 49.4089C170.824 50.8738 171.903 53.1312 173.695 52.9811C175.041 52.868 176.07 51.5274 175.632 50.1667C175.19 48.7931 173.147 48.3488 172.172 49.4089Z" fill="#E1DCD6"/>
<mask id="mask3" mask-type="alpha" maskUnits="userSpaceOnUse" x="195" y="47" width="8" height="8">
<path fill-rule="evenodd" clip-rule="evenodd" d="M195.107 47.2119H202.655V54.6094H195.107V47.2119Z" fill="white"/>
</mask>
<g mask="url(#mask3)">
<path fill-rule="evenodd" clip-rule="evenodd" d="M196.203 48.2563C193.762 50.8565 195.716 54.8633 198.96 54.5968C201.4 54.3964 203.263 52.0169 202.47 49.6012C201.669 47.1631 197.969 46.3746 196.203 48.2563Z" fill="#2B292D"/>
</g>
<path fill-rule="evenodd" clip-rule="evenodd" d="M197.776 49.4089C196.428 50.8738 197.507 53.1312 199.299 52.9811C200.646 52.868 201.674 51.5274 201.236 50.1667C200.795 48.7931 198.751 48.3488 197.776 49.4089Z" fill="#E1DCD6"/>
<path fill-rule="evenodd" clip-rule="evenodd" d="M175.648 28.9221C174.582 29.7797 173.14 38.7024 173.383 39.736C173.626 40.7699 182.685 40.5313 183.252 40.2132C183.818 39.895 183.171 28.5244 182.928 28.1268C182.685 27.7295 176.538 28.2063 175.648 28.9221Z" fill="#E1DCD6"/>
<path fill-rule="evenodd" clip-rule="evenodd" d="M185.061 27.9509C184.683 28.5714 184.467 39.7035 184.982 40.218C185.497 40.7326 193.375 40.3761 193.969 40.218C194.562 40.0596 193.879 28.7027 193.602 28.0301C193.325 27.3575 185.615 27.0406 185.061 27.9509Z" fill="#E1DCD6"/>
<path fill-rule="evenodd" clip-rule="evenodd" d="M196.344 28.5203C195.99 29.1128 195.787 39.7387 196.27 40.2298C196.752 40.7208 204.138 40.3809 204.695 40.2298C205.251 40.0786 204.61 29.2381 204.351 28.5959C204.091 27.9537 196.863 27.6514 196.344 28.5203Z" fill="#E1DCD6"/>
<path fill-rule="evenodd" clip-rule="evenodd" d="M166.712 43.6277C166.46 44.0034 166.112 45.7771 166.244 46.1518C166.375 46.5264 167.443 46.4673 167.668 46.349C167.892 46.2308 168.08 44.0416 167.967 43.7853C167.855 43.5293 166.937 43.2924 166.712 43.6277Z" fill="#FC9500"/>
<path fill-rule="evenodd" clip-rule="evenodd" d="M206.699 43.8003C206.679 43.3476 205.33 43.3513 205.129 43.8003C204.928 44.2493 204.837 46.5559 205.001 47.1277C205.166 47.6992 206.315 47.6992 206.498 47.5357C206.68 47.3726 206.717 44.2292 206.699 43.8003Z" fill="#308383"/>
<path fill-rule="evenodd" clip-rule="evenodd" d="M159.072 46.4394C163.675 46.4394 167.407 42.7076 167.407 38.1042C167.407 33.5007 163.675 29.7689 159.072 29.7689C154.468 29.7689 150.736 33.5007 150.736 38.1042C150.736 42.7076 154.468 46.4394 159.072 46.4394Z" fill="#E1DCD6"/>
<path fill-rule="evenodd" clip-rule="evenodd" d="M144.785 41.676C146.429 41.676 147.762 40.3432 147.762 38.6992C147.762 37.0551 146.429 35.7223 144.785 35.7223C143.141 35.7223 141.808 37.0551 141.808 38.6992C141.808 40.3432 143.141 41.676 144.785 41.676Z" fill="#E1DCD6"/>
<path d="M170.384 59.5169L205.87 20.2424" stroke="#FF5A5A" stroke-width="3" stroke-linecap="round"/>
</svg>
